<?xml version="1.0" standalone="no"?>
<!DOCTYPE svg PUBLIC "-//W3C//DTD SVG 20010904//EN"
 "http://www.w3.org/TR/2001/REC-SVG-20010904/DTD/svg10.dtd">
<svg version="1.0" xmlns="http://www.w3.org/2000/svg"
 width="604.000000pt" height="605.000000pt" viewBox="0 0 604.000000 605.000000"
 preserveAspectRatio="xMidYMid meet">

<g transform="translate(0.000000,605.000000) scale(0.100000,-0.100000)"
fill="#ffffff" stroke="none">
<path d="M303 6035 c-152 -41 -261 -157 -293 -310 -7 -34 -9 -913 -8 -2730 l3
-2680 23 -57 c42 -104 126 -188 230 -230 l57 -23 2705 0 2705 0 57 23 c104 42
188 126 230 230 l23 57 0 2710 0 2710 -23 57 c-42 104 -126 188 -230 230 l-57
23 -2685 2 c-2291 1 -2693 0 -2737 -12z m5469 -108 c65 -32 121 -89 152 -156
l21 -46 0 -2700 0 -2700 -21 -46 c-31 -67 -87 -124 -152 -156 l-57 -28 -2695
0 -2695 0 -46 21 c-67 31 -124 87 -156 152 l-28 57 -3 2680 c-2 2941 -7 2734
57 2822 39 54 91 93 154 115 50 17 180 17 2732 15 l2680 -2 57 -28z"/>
<path d="M2120 5301 c-25 -25 -30 -37 -30 -80 0 -50 -1 -51 -30 -51 -25 0 -30
-4 -30 -25 0 -21 5 -25 30 -25 l30 0 0 -170 0 -170 30 0 30 0 0 170 0 170 65
0 65 0 0 -170 0 -170 35 0 35 0 0 170 0 170 35 0 c31 0 35 3 35 25 0 22 -4 25
-35 25 -34 0 -35 1 -35 38 0 46 14 62 56 62 24 0 34 5 39 20 10 30 -2 40 -46
40 -79 0 -119 -44 -119 -132 0 -28 -1 -28 -66 -28 l-67 0 6 41 c6 48 18 59 65
59 30 0 33 2 30 28 -3 25 -7 27 -51 30 -41 3 -51 -1 -77 -27z"/>
<path d="M1370 5049 l0 -271 143 4 c124 3 147 6 184 26 82 43 119 135 111 276
-3 67 -9 92 -31 129 -51 87 -104 107 -284 107 l-123 0 0 -271z m297 185 c16
-11 38 -40 51 -65 20 -38 23 -55 20 -130 -4 -94 -22 -136 -71 -173 -22 -16
-46 -21 -127 -24 l-100 -4 0 212 0 212 100 -4 c80 -3 105 -8 127 -24z"/>
<path d="M1910 5280 c0 -38 2 -40 30 -40 28 0 30 2 30 40 0 38 -2 40 -30 40
-28 0 -30 -2 -30 -40z"/>
<path d="M2550 5158 c-77 -39 -113 -139 -90 -243 22 -99 97 -153 201 -143 56
6 93 28 127 79 l23 34 -31 9 c-28 8 -34 6 -60 -26 -65 -79 -175 -45 -196 60
l-6 32 146 0 146 0 0 38 c0 45 -29 109 -61 139 -53 48 -129 56 -199 21z m148
-54 c13 -8 27 -26 32 -40 20 -53 18 -54 -94 -54 -58 0 -107 4 -110 8 -11 17
30 78 64 95 37 19 69 16 108 -9z"/>
<path d="M2979 5151 l-29 -29 0 24 c0 20 -5 24 -30 24 l-30 0 0 -195 0 -195
34 0 35 0 3 144 c3 126 5 147 23 166 15 16 29 21 59 18 33 -2 40 1 48 22 20
54 -64 69 -113 21z"/>
<path d="M3224 5162 c-76 -36 -110 -109 -101 -214 11 -126 98 -192 224 -173
36 5 56 16 85 45 45 44 48 65 11 75 -22 5 -31 1 -50 -24 -33 -42 -81 -56 -127
-37 -38 16 -76 67 -76 104 0 22 1 22 146 22 l147 0 -7 52 c-4 28 -14 64 -22
79 -39 75 -148 109 -230 71z m122 -47 c37 -15 74 -79 56 -97 -5 -5 -53 -7
-108 -6 -99 3 -99 3 -96 28 1 13 14 37 29 52 22 23 35 30 76 37 4 0 23 -6 43
-14z"/>
<path d="M3680 5169 c-13 -6 -33 -17 -42 -26 -17 -15 -18 -15 -18 5 0 18 -6
22 -30 22 l-30 0 0 -195 0 -195 30 0 30 0 0 118 c0 135 11 184 45 206 33 22
88 20 116 -3 23 -18 24 -25 27 -170 l3 -151 30 0 29 0 0 155 c0 122 -3 163
-16 186 -25 50 -110 73 -174 48z"/>
<path d="M4050 5158 c-66 -34 -90 -82 -90 -183 0 -101 24 -149 90 -182 87 -44
183 -18 222 61 12 25 20 48 17 50 -2 2 -16 7 -31 11 -23 6 -28 3 -33 -18 -19
-73 -116 -96 -166 -39 -31 35 -45 98 -34 161 18 106 135 145 183 61 18 -31 22
-32 60 -22 22 7 22 7 5 41 -40 77 -138 103 -223 59z"/>
<path d="M4446 5170 c-67 -20 -115 -100 -116 -190 0 -81 15 -123 59 -163 82
-74 230 -56 276 33 19 37 18 38 -21 46 -26 5 -32 2 -42 -21 -15 -32 -70 -57
-111 -49 -38 8 -76 49 -89 97 l-10 37 144 0 144 0 0 48 c-1 120 -113 198 -234
162z m136 -79 c14 -14 28 -37 30 -51 l3 -25 -107 -3 c-121 -3 -127 1 -88 65
34 57 112 64 162 14z"/>
<path d="M1910 4975 l0 -195 30 0 30 0 0 195 0 195 -30 0 -30 0 0 -195z"/>
<path d="M4711 3895 c-18 -8 -55 -31 -82 -51 -27 -20 -70 -42 -96 -50 -51 -15
-67 -13 -168 30 -81 33 -178 43 -227 23 -49 -21 -115 -82 -199 -188 -71 -89
-189 -193 -259 -229 -21 -11 -67 -24 -102 -30 -81 -12 -150 -1 -272 46 -101
39 -143 42 -179 14 -66 -52 -125 -277 -172 -662 l-7 -58 -962 0 -962 0 -28
158 c-31 173 -65 293 -92 323 -9 10 -30 19 -46 19 -23 0 -34 -9 -58 -46 -26
-41 -128 -303 -160 -411 -13 -42 -14 -43 -57 -43 -39 0 -43 -2 -43 -25 0 -22
4 -25 36 -25 30 0 34 -3 30 -18 -4 -11 -20 -79 -36 -153 -27 -121 -30 -150
-29 -304 1 -93 4 -161 6 -150 25 99 97 311 155 453 l70 172 104 0 c75 0 106
-4 109 -12 3 -7 27 -157 55 -333 109 -695 161 -895 235 -895 30 0 44 15 90 91
32 51 41 60 59 54 55 -17 64 -16 85 6 39 42 60 144 111 534 45 347 70 485 89
485 16 0 80 -233 219 -795 97 -389 122 -459 198 -546 73 -83 92 -125 158 -357
31 -106 60 -202 66 -212 31 -58 71 -65 100 -18 26 42 42 100 79 281 51 245 77
337 100 351 5 4 28 -12 51 -34 132 -127 168 2 265 965 19 193 38 369 41 393
l6 42 1334 0 1334 0 0 23 c0 21 -9 26 -87 45 -110 27 -150 54 -221 151 -96
128 -144 229 -279 586 -104 275 -154 364 -224 401 -35 18 -94 17 -138 -1z
m153 -68 c30 -32 67 -100 107 -195 l19 -47 -22 30 c-107 142 -173 157 -336 80
-132 -63 -148 -64 -259 -21 -71 28 -107 36 -156 36 -96 0 -147 -30 -268 -160
-88 -93 -115 -116 -208 -168 -139 -80 -177 -90 -278 -73 -43 7 -103 22 -133
33 -140 51 -141 52 -173 40 -42 -16 -45 -8 -8 28 34 35 34 35 138 -6 217 -85
361 -70 516 55 73 58 132 119 211 218 32 40 77 87 100 104 39 29 44 30 116 26
54 -4 94 -13 145 -36 111 -49 166 -42 282 37 71 48 77 50 132 51 37 1 48 -4
75 -32z m-22 -150 c67 -40 107 -108 222 -378 37 -87 87 -192 112 -235 69 -124
8 -39 -96 130 -109 180 -154 237 -213 265 -71 34 -142 25 -277 -38 -59 -27
-112 -26 -245 4 -61 14 -129 25 -151 25 -52 0 -123 -36 -254 -129 -157 -111
-185 -124 -344 -156 -93 -19 -188 -9 -320 32 -94 29 -136 26 -178 -13 -34 -33
-34 -31 -7 41 26 69 63 115 94 115 13 0 57 -13 98 -30 102 -41 232 -62 299
-50 30 6 100 36 166 72 104 56 124 72 211 166 52 56 118 117 146 135 69 44
148 44 255 -2 104 -45 160 -41 295 22 55 26 111 47 125 47 14 0 42 -10 62 -23z
m58 -304 c33 -34 90 -116 139 -198 131 -218 229 -338 335 -409 l39 -26 -1207
0 -1206 0 0 24 c0 47 60 262 91 323 45 94 57 96 214 54 108 -29 216 -37 301
-21 140 26 190 48 332 144 226 154 231 155 427 110 134 -31 164 -29 280 21 60
25 95 34 140 35 l59 0 56 -57z m-4015 -213 c21 -41 19 -50 -13 -50 -31 0 -59
-25 -85 -75 -24 -45 -20 -26 9 45 28 70 52 110 65 110 5 0 15 -13 24 -30z m25
-166 c26 -70 25 -76 -5 -62 -38 17 -73 -14 -120 -108 -22 -43 -41 -81 -42 -83
-2 -2 -6 -1 -10 2 -8 9 72 230 104 285 30 52 42 46 73 -34z m20 -166 c17 -35
30 -69 30 -75 0 -9 -23 -13 -80 -13 -49 0 -80 4 -80 10 0 12 35 82 58 118 23
36 41 26 72 -40z m-224 -179 c-8 -19 -15 -29 -15 -22 -1 18 19 67 25 61 3 -3
-2 -21 -10 -39z m949 24 c-24 -56 -47 -136 -80 -281 -37 -167 -67 -265 -86
-288 -7 -8 -29 -12 -60 -11 -46 2 -51 0 -103 -52 -46 -45 -57 -52 -70 -42 -27
23 -75 156 -145 403 -37 134 -72 254 -75 266 l-7 22 316 0 c298 0 317 -1 310
-17z m1281 0 c-3 -10 -19 -101 -36 -203 -60 -362 -94 -508 -129 -552 l-20 -23
-43 23 c-103 53 -139 19 -222 -219 -39 -109 -69 -169 -85 -169 -12 0 -43 54
-86 151 -46 105 -86 162 -132 190 -88 52 -120 100 -203 299 -93 224 -181 424
-206 469 -13 24 -24 45 -24 47 0 2 268 4 596 4 562 0 595 -1 590 -17z m-981
-560 c61 -148 111 -224 167 -257 67 -39 88 -66 158 -208 72 -147 100 -177 142
-157 33 14 66 75 113 209 42 119 67 171 89 189 12 10 24 8 65 -15 66 -37 95
-28 133 41 15 28 28 48 28 45 0 -3 -11 -69 -25 -147 -23 -133 -56 -246 -74
-258 -5 -2 -20 4 -34 15 -54 42 -78 50 -107 35 -38 -19 -63 -84 -120 -305 -47
-182 -71 -250 -89 -250 -11 0 -40 74 -96 246 -50 156 -79 208 -143 255 -45 33
-82 87 -107 159 -13 36 -69 223 -152 505 -12 42 6 6 52 -102z m-415 -85 c-7
-40 -21 -102 -32 -137 l-20 -63 -40 6 c-52 8 -77 -7 -123 -79 -19 -30 -39 -55
-44 -55 -25 0 -54 76 -101 262 -37 143 -37 159 -4 88 54 -118 98 -130 176 -49
48 49 51 51 90 45 46 -8 82 10 93 44 14 44 17 9 5 -62z m-25 -286 c-23 -95
-33 -115 -55 -108 -11 3 -28 9 -38 12 -26 8 -66 -28 -102 -91 -17 -30 -38 -55
-45 -55 -14 0 -33 44 -60 139 -21 74 -19 92 5 53 40 -66 82 -56 140 33 l43 65
47 -6 c30 -4 50 -2 54 5 18 28 23 6 11 -47z m614 -222 c71 -61 91 -100 154
-300 66 -206 98 -251 150 -210 30 24 60 109 112 320 37 147 64 222 84 234 6 4
29 -6 50 -23 50 -40 82 -40 115 0 31 37 32 34 5 -89 -20 -92 -42 -152 -56
-152 -3 0 -25 18 -49 40 -50 46 -66 49 -99 16 -30 -31 -55 -112 -109 -366 -24
-113 -51 -223 -61 -245 l-17 -40 -17 35 c-10 19 -30 80 -45 135 -78 283 -101
341 -171 416 -24 26 -55 69 -69 97 -22 43 -97 271 -96 290 1 4 14 -18 30 -50
18 -35 52 -75 89 -108z"/>
</g>
</svg>
