<?xml version="1.0" standalone="no"?>
<!DOCTYPE svg PUBLIC "-//W3C//DTD SVG 20010904//EN"
 "http://www.w3.org/TR/2001/REC-SVG-20010904/DTD/svg10.dtd">
<svg version="1.0" xmlns="http://www.w3.org/2000/svg"
 width="605.000000pt" height="605.000000pt" viewBox="0 0 605.000000 605.000000"
 preserveAspectRatio="xMidYMid meet">

<g transform="translate(0.000000,605.000000) scale(0.100000,-0.100000)"
fill="#ffffff" stroke="none">
<path d="M303 6035 c-152 -41 -261 -157 -293 -310 -7 -34 -9 -913 -8 -2730 l3
-2680 23 -57 c42 -104 126 -188 230 -230 l57 -23 2710 0 2710 0 57 23 c104 42
188 126 230 230 l23 57 0 2710 0 2710 -23 57 c-42 104 -126 188 -230 230 l-57
23 -2690 2 c-2295 1 -2698 0 -2742 -12z m5479 -108 c65 -32 121 -89 152 -156
l21 -46 0 -2700 0 -2700 -21 -46 c-31 -67 -87 -124 -152 -156 l-57 -28 -2700
0 -2700 0 -46 21 c-67 31 -124 87 -156 152 l-28 57 -3 2680 c-2 2941 -7 2734
57 2822 39 54 91 93 154 115 50 17 180 17 2737 15 l2685 -2 57 -28z"/>
<path d="M2495 3725 c-204 -45 -365 -170 -451 -353 -144 -304 -84 -766 128
-984 105 -107 225 -161 396 -177 240 -22 416 38 554 188 81 87 179 295 145
306 -16 6 -174 45 -180 45 -3 0 -14 -30 -26 -67 -37 -124 -112 -215 -217 -265
-223 -105 -495 -15 -602 198 -46 93 -63 174 -69 329 -8 225 35 376 139 490
124 136 372 180 544 95 77 -38 126 -91 171 -186 37 -78 42 -81 103 -65 19 6
54 15 78 21 23 6 42 17 42 24 0 8 -20 54 -45 103 -76 153 -202 254 -370 298
-73 18 -255 19 -340 0z"/>
<path d="M1470 2975 l0 -745 100 0 100 0 0 745 0 745 -100 0 -100 0 0 -745z"/>
<path d="M3660 3008 c-150 -392 -280 -728 -287 -746 l-14 -33 107 3 107 3 81
223 80 222 312 0 311 0 86 -222 85 -223 111 -3 c61 -1 111 1 111 5 0 4 -136
340 -302 746 l-302 737 -106 0 -106 0 -274 -712z m411 445 c18 -54 74 -210
126 -348 51 -137 93 -253 93 -257 0 -5 -112 -8 -249 -8 l-248 0 79 212 c86
232 133 374 149 449 6 27 12 49 14 49 2 0 18 -44 36 -97z"/>
</g>
</svg>
