<?xml version="1.0" standalone="no"?>
<!DOCTYPE svg PUBLIC "-//W3C//DTD SVG 20010904//EN"
 "http://www.w3.org/TR/2001/REC-SVG-20010904/DTD/svg10.dtd">
<svg version="1.0" xmlns="http://www.w3.org/2000/svg"
 width="605.000000pt" height="605.000000pt" viewBox="0 0 605.000000 605.000000"
 preserveAspectRatio="xMidYMid meet">

<g transform="translate(0.000000,605.000000) scale(0.100000,-0.100000)"
fill="#756C91" stroke="none">
<path d="M303 6035 c-152 -41 -261 -157 -293 -310 -7 -34 -9 -913 -8 -2730 l3
-2680 23 -57 c42 -104 126 -188 230 -230 l57 -23 2710 0 2710 0 57 23 c104 42
188 126 230 230 l23 57 0 2710 0 2710 -23 57 c-42 104 -126 188 -230 230 l-57
23 -2690 2 c-2295 1 -2698 0 -2742 -12z m5479 -108 c65 -32 121 -89 152 -156
l21 -46 0 -2700 0 -2700 -21 -46 c-31 -67 -87 -124 -152 -156 l-57 -28 -2700
0 -2700 0 -46 21 c-67 31 -124 87 -156 152 l-28 57 -3 2680 c-2 2941 -7 2734
57 2822 39 54 91 93 154 115 50 17 180 17 2737 15 l2685 -2 57 -28z"/>
<path d="M690 5051 l0 -271 35 0 35 0 0 109 0 109 118 3 c131 4 157 14 192 72
27 43 27 131 0 174 -37 61 -58 68 -227 72 l-153 3 0 -271z m306 176 c16 -19
24 -40 24 -67 0 -27 -8 -48 -24 -67 -23 -27 -28 -28 -130 -31 l-106 -4 0 102
0 102 106 -4 c102 -3 107 -4 130 -31z"/>
<path d="M4470 5280 c0 -38 2 -40 30 -40 28 0 30 2 30 40 0 38 -2 40 -30 40
-28 0 -30 -2 -30 -40z"/>
<path d="M1261 5148 l-31 -32 0 27 c0 22 -5 27 -25 27 l-25 0 0 -195 0 -195
30 0 30 0 0 118 c0 177 20 221 95 209 28 -5 33 -2 42 24 11 28 10 31 -13 40
-44 16 -71 10 -103 -23z"/>
<path d="M1515 5166 c-37 -17 -80 -62 -94 -99 -20 -52 -14 -159 12 -207 59
-112 242 -121 307 -16 25 42 25 44 -16 52 -25 5 -32 1 -44 -22 -18 -34 -70
-57 -108 -48 -56 14 -76 37 -97 112 l-6 22 145 0 146 0 0 43 c0 125 -132 213
-245 163z m148 -77 c15 -16 27 -40 27 -54 l0 -25 -105 0 c-103 0 -105 1 -105
23 0 52 67 101 125 91 17 -3 42 -19 58 -35z"/>
<path d="M1965 5171 c-12 -5 -27 -16 -34 -25 -18 -22 -31 -20 -31 4 0 15 -7
20 -25 20 l-25 0 0 -270 0 -270 30 0 30 0 0 90 0 90 37 -20 c65 -35 136 -20
185 38 37 44 51 94 46 165 -5 74 -30 130 -71 159 -32 23 -109 33 -142 19z
m111 -72 c27 -26 45 -102 37 -155 -9 -60 -31 -94 -69 -110 -32 -14 -39 -13
-72 3 -20 10 -44 32 -51 48 -19 39 -20 131 -2 174 29 68 106 88 157 40z"/>
<path d="M2349 5151 l-29 -29 0 24 c0 20 -5 24 -30 24 l-30 0 0 -195 0 -195
34 0 35 0 3 144 c3 126 5 147 23 166 15 16 29 21 59 18 33 -2 40 1 48 22 20
54 -64 69 -113 21z"/>
<path d="M2606 5170 c-41 -13 -94 -68 -106 -110 -5 -19 -10 -57 -10 -85 0 -72
15 -117 52 -152 56 -54 124 -67 196 -37 80 33 112 88 112 192 0 146 -109 232
-244 192z m136 -78 c55 -51 54 -180 -1 -235 -50 -50 -129 -38 -166 26 -26 43
-26 144 0 183 43 67 112 78 167 26z"/>
<path d="M3004 5162 c-62 -29 -87 -78 -92 -176 -3 -71 -1 -87 20 -126 42 -80
150 -113 228 -71 38 20 80 73 80 101 0 10 -10 20 -22 24 -34 9 -38 8 -38 -9 0
-8 -13 -29 -29 -47 -35 -39 -86 -43 -128 -12 -52 39 -66 151 -28 225 19 35 76
63 108 53 29 -8 67 -44 67 -62 0 -10 8 -12 33 -7 17 4 34 9 36 11 7 7 -35 68
-61 87 -39 29 -122 33 -174 9z"/>
<path d="M3384 5162 c-76 -36 -110 -109 -101 -214 11 -126 98 -192 224 -173
36 5 56 16 85 45 45 44 48 65 11 75 -22 5 -31 1 -50 -24 -33 -42 -81 -56 -127
-37 -38 16 -76 67 -76 104 0 22 1 22 146 22 l147 0 -7 52 c-4 28 -14 64 -22
79 -39 75 -148 109 -230 71z m122 -47 c37 -15 74 -79 56 -97 -5 -5 -53 -7
-108 -6 -99 3 -99 3 -96 28 1 13 14 37 29 52 22 23 35 30 76 37 4 0 23 -6 43
-14z"/>
<path d="M3774 5166 c-43 -19 -64 -53 -64 -101 0 -63 33 -88 153 -120 51 -13
71 -23 79 -40 15 -33 -5 -62 -50 -76 -52 -15 -109 8 -125 51 -12 31 -16 33
-54 22 -22 -7 -22 -7 -4 -47 23 -52 59 -75 125 -82 104 -11 176 39 176 122 0
63 -20 81 -135 118 -90 29 -100 35 -103 58 -4 35 20 52 74 53 41 1 50 -3 74
-32 22 -27 32 -32 54 -26 32 8 33 23 4 59 -40 52 -135 71 -204 41z"/>
<path d="M4145 5161 c-44 -19 -65 -53 -65 -102 0 -47 42 -82 125 -104 88 -22
115 -39 115 -69 0 -36 -34 -59 -85 -59 -48 0 -80 20 -96 61 -7 18 -14 21 -36
16 -39 -10 -40 -11 -18 -51 28 -51 65 -75 124 -81 100 -9 181 46 181 123 0 60
-39 91 -150 120 -65 17 -100 38 -100 60 0 47 117 68 151 27 9 -12 19 -27 21
-33 2 -6 14 -8 31 -4 33 9 35 32 7 68 -37 47 -135 60 -205 28z"/>
<path d="M4760 5169 c-13 -6 -33 -17 -42 -26 -17 -15 -18 -15 -18 5 0 18 -6
22 -30 22 l-30 0 0 -195 0 -195 30 0 30 0 0 118 c0 135 11 184 45 206 33 22
88 20 116 -3 23 -18 24 -25 27 -170 l3 -151 30 0 29 0 0 155 c0 122 -3 163
-16 186 -25 50 -110 73 -174 48z"/>
<path d="M5118 5160 c-55 -30 -80 -79 -86 -165 -4 -62 -1 -81 18 -119 41 -86
130 -119 210 -77 l40 21 0 -36 c0 -54 -24 -91 -66 -103 -50 -14 -91 -4 -117
30 -12 15 -35 31 -51 35 -29 7 -29 6 -23 -27 20 -99 188 -134 274 -56 47 44
52 78 53 310 l0 197 -30 0 c-23 0 -30 -4 -30 -20 0 -20 0 -20 -29 1 -42 31
-116 35 -163 9z m142 -59 c64 -45 65 -188 2 -244 -28 -26 -85 -26 -119 0 -40
29 -59 101 -44 169 12 54 29 76 71 93 29 11 56 6 90 -18z"/>
<path d="M4470 4975 l0 -195 30 0 30 0 0 195 0 195 -30 0 -30 0 0 -195z"/>
<path d="M460 4203 c0 -16 5 -208 10 -428 24 -961 51 -1380 95 -1465 21 -40
55 -40 89 1 14 17 26 34 26 39 0 5 24 25 53 44 59 40 100 96 153 211 l37 80
32 -95 c91 -271 152 -299 321 -147 82 73 216 159 236 152 35 -14 62 -108 133
-460 81 -408 125 -531 206 -579 45 -27 82 -15 200 65 133 90 145 101 245 236
83 111 115 143 151 145 10 1 50 -11 88 -27 l70 -28 65 17 c36 9 77 16 92 16
34 0 84 -43 132 -113 34 -49 37 -61 52 -182 59 -508 117 -723 219 -801 19 -14
69 -37 112 -51 64 -21 96 -26 173 -25 52 1 291 -3 530 -9 239 -5 635 -11 880
-13 245 -2 541 -6 658 -9 l212 -5 0 23 c0 21 -7 25 -57 35 -97 20 -174 63
-241 135 -100 106 -138 180 -322 628 -114 277 -169 354 -264 364 -68 8 -107
-3 -182 -53 -106 -69 -132 -74 -223 -40 -257 94 -316 79 -483 -125 -136 -167
-294 -249 -477 -249 -78 0 -131 28 -296 154 -156 120 -190 155 -204 206 -6 19
-26 206 -46 415 -92 976 -125 1155 -214 1155 -8 0 -36 -23 -62 -51 -26 -28
-52 -48 -58 -45 -17 11 -45 115 -91 330 -58 276 -80 332 -131 324 -46 -6 -67
-72 -149 -461 -51 -243 -70 -300 -153 -458 -73 -139 -94 -202 -167 -504 -74
-309 -127 -455 -164 -455 -26 0 -60 111 -90 290 -8 52 -31 232 -50 400 -90
770 -110 870 -178 878 -19 2 -38 -7 -68 -34 l-41 -37 -28 21 c-102 75 -138 20
-236 -358 -55 -214 -116 -410 -126 -410 -4 0 -15 19 -24 43 -39 102 -95 128
-146 68 -15 -18 -52 -97 -84 -177 -31 -79 -61 -146 -65 -149 -34 -21 -60 353
-82 1148 l-12 447 -28 0 c-24 0 -28 -4 -28 -27z m1965 -388 c14 -55 41 -174
60 -264 41 -196 74 -274 118 -279 24 -3 37 6 77 49 l49 53 16 -39 c21 -48 49
-192 69 -355 23 -178 67 -623 62 -627 -2 -2 -9 17 -15 42 -47 189 -110 244
-203 180 -65 -44 -74 -37 -147 117 -59 124 -87 151 -129 127 -41 -23 -59 -56
-127 -239 -76 -201 -89 -226 -180 -335 -44 -53 -89 -125 -135 -215 -65 -128
-100 -180 -120 -180 -19 0 -49 43 -69 98 -35 100 -35 102 -9 102 14 0 36 12
50 28 56 59 87 149 177 514 70 284 92 347 161 467 75 130 95 197 185 625 38
177 62 253 76 239 5 -5 20 -53 34 -108z m-987 -222 c25 -63 58 -257 82 -478 5
-55 13 -116 15 -135 l5 -35 -16 30 c-45 82 -87 94 -150 44 -22 -17 -72 -47
-112 -66 -60 -29 -80 -45 -119 -96 -67 -89 -104 -127 -126 -127 -15 0 -51 14
-64 25 -2 1 15 52 37 114 22 63 70 223 105 357 70 260 97 345 119 364 11 8 22
6 48 -10 47 -28 82 -25 120 10 18 16 36 30 39 30 4 0 11 -12 17 -27z m40 -640
c17 -41 52 -158 52 -176 0 -4 -13 1 -28 10 -43 25 -88 11 -167 -52 -91 -72
-244 -175 -259 -175 -16 0 -50 37 -70 77 -21 41 -20 43 7 43 39 0 84 36 144
117 50 68 67 83 129 114 39 19 87 48 105 62 48 38 63 35 87 -20z m-628 -53 c0
-4 -13 -10 -30 -13 -20 -4 -38 -20 -56 -47 -15 -22 -28 -40 -30 -40 -8 0 48
115 64 133 16 18 17 18 34 -3 10 -12 18 -26 18 -30z m18 -92 l20 -31 -42 -21
c-50 -26 -87 -84 -147 -232 -28 -72 -45 -102 -52 -95 -7 7 -1 32 21 78 17 37
47 111 67 163 40 105 78 170 99 170 8 0 23 -14 34 -32z m1608 -153 c54 -113
88 -155 127 -155 11 0 44 14 74 31 63 36 70 33 103 -44 22 -50 80 -266 80
-297 0 -8 -9 -1 -19 16 -41 67 -99 80 -181 43 -24 -11 -54 -18 -66 -15 -12 3
-41 29 -64 56 -73 88 -124 98 -178 36 -15 -18 -57 -86 -92 -151 -49 -90 -84
-140 -141 -200 -41 -44 -106 -116 -142 -159 -37 -44 -76 -86 -88 -94 -30 -21
-62 -8 -87 37 -28 50 -28 52 7 45 48 -10 91 39 166 189 62 123 83 155 181 277
48 60 92 150 144 295 59 165 90 223 112 209 5 -4 34 -57 64 -119z m-969 50
c29 -51 29 -60 -2 -61 -37 -3 -175 -87 -246 -152 -111 -100 -138 -111 -177
-69 -18 19 -52 85 -52 102 0 3 9 1 20 -5 38 -21 100 15 321 183 77 59 104 60
136 2z m-633 -7 c-27 -87 -120 -248 -143 -248 -10 0 25 92 66 175 25 52 60 95
75 95 5 0 6 -10 2 -22z m-220 -100 c-3 -12 -13 -37 -22 -57 -13 -32 -16 -34
-23 -16 -12 32 -10 55 6 55 8 0 20 9 27 20 17 26 21 25 12 -2z m-28 -245 c-13
-32 -23 -29 -31 10 -4 17 -9 41 -12 52 -4 16 1 14 24 -10 24 -25 27 -34 19
-52z m1866 -93 c82 -88 97 -91 207 -47 l54 22 33 -39 c18 -21 46 -74 63 -119
16 -45 33 -91 37 -102 6 -15 -1 -12 -29 12 -48 42 -79 49 -147 34 -102 -24
-107 -24 -166 3 -112 51 -159 32 -265 -112 -40 -53 -91 -117 -113 -141 -49
-52 -240 -181 -268 -181 -19 0 -78 53 -78 70 0 4 11 5 24 3 37 -7 79 21 143
94 32 37 94 106 139 153 92 97 123 140 185 260 46 88 92 150 114 150 7 0 37
-27 67 -60z m2360 -350 c20 -6 50 -26 67 -46 31 -34 116 -192 108 -200 -2 -2
-16 13 -32 34 -49 66 -101 96 -172 100 -57 4 -70 1 -162 -43 -123 -57 -156
-59 -266 -14 -67 27 -93 33 -160 33 -113 0 -161 -27 -289 -160 -68 -71 -110
-107 -135 -115 -20 -6 -74 -30 -121 -52 -82 -40 -89 -41 -185 -42 -86 0 -106
3 -145 24 -60 32 -194 137 -250 197 -51 54 -52 55 90 -52 121 -92 183 -124
254 -131 151 -16 337 58 461 182 39 39 96 101 128 138 32 37 76 76 97 87 54
28 129 26 215 -6 132 -49 160 -54 213 -40 26 6 73 29 105 50 48 32 115 64 137
66 3 0 22 -5 42 -10z m51 -186 c52 -34 99 -110 191 -310 43 -93 94 -198 114
-234 50 -93 29 -66 -86 106 -181 273 -259 309 -475 220 -47 -20 -102 -36 -122
-36 -19 0 -84 12 -143 26 -149 36 -202 35 -288 -5 -38 -18 -105 -58 -149 -90
-106 -77 -108 -78 -232 -106 -194 -43 -237 -48 -306 -30 -128 33 -279 157
-336 276 -17 37 -31 71 -31 75 0 5 21 -12 48 -38 78 -75 203 -169 262 -197 47
-22 68 -26 150 -25 102 0 106 1 280 78 100 44 110 51 205 150 123 127 146 140
245 141 62 0 90 -6 157 -32 111 -44 157 -44 253 3 144 70 190 75 263 28z
m-1775 -341 c108 -109 236 -173 347 -173 81 0 330 52 387 81 24 12 73 43 109
70 81 59 168 106 216 115 24 5 74 -2 157 -22 165 -38 221 -37 316 6 63 30 86
35 147 35 110 0 128 -17 308 -283 162 -239 199 -283 289 -342 l58 -38 -66 -7
c-36 -4 -83 -4 -103 0 -21 4 -276 9 -568 12 -291 2 -611 6 -710 9 -99 3 -288
6 -420 8 -220 2 -246 4 -308 25 -82 28 -120 58 -152 122 -45 88 -91 282 -121
514 l-5 40 32 -58 c18 -32 57 -84 87 -114z"/>
</g>
</svg>
