<?xml version="1.0" standalone="no"?>
<!DOCTYPE svg PUBLIC "-//W3C//DTD SVG 20010904//EN"
 "http://www.w3.org/TR/2001/REC-SVG-20010904/DTD/svg10.dtd">
<svg version="1.0" xmlns="http://www.w3.org/2000/svg"
 width="605.000000pt" height="605.000000pt" viewBox="0 0 605.000000 605.000000"
 preserveAspectRatio="xMidYMid meet">

<g transform="translate(0.000000,605.000000) scale(0.100000,-0.100000)"
fill="#ffffff" stroke="none">
<path d="M303 6035 c-152 -41 -261 -157 -293 -310 -7 -34 -9 -913 -8 -2730 l3
-2680 23 -57 c42 -104 126 -188 230 -230 l57 -23 2710 0 2710 0 57 23 c104 42
188 126 230 230 l23 57 0 2710 0 2710 -23 57 c-42 104 -126 188 -230 230 l-57
23 -2690 2 c-2295 1 -2698 0 -2742 -12z m5479 -108 c65 -32 121 -89 152 -156
l21 -46 0 -2700 0 -2700 -21 -46 c-31 -67 -87 -124 -152 -156 l-57 -28 -2700
0 -2700 0 -46 21 c-67 31 -124 87 -156 152 l-28 57 -3 2680 c-2 2941 -7 2734
57 2822 39 54 91 93 154 115 50 17 180 17 2737 15 l2685 -2 57 -28z"/>
<path d="M700 3443 c0 -5 50 -140 112 -300 l112 -293 40 0 41 0 116 300 116
300 -38 0 c-21 0 -40 -4 -44 -9 -3 -6 -47 -124 -98 -264 l-93 -253 -63 180
c-35 100 -77 218 -93 264 l-30 82 -39 0 c-21 0 -39 -3 -39 -7z"/>
<path d="M1290 3410 c0 -39 1 -40 35 -40 34 0 35 1 35 40 0 39 -1 40 -35 40
-34 0 -35 -1 -35 -40z"/>
<path d="M2810 3150 l0 -300 35 0 35 0 0 300 0 300 -35 0 -35 0 0 -300z"/>
<path d="M3000 3410 c0 -39 1 -40 35 -40 34 0 35 1 35 40 0 39 -1 40 -35 40
-34 0 -35 -1 -35 -40z"/>
<path d="M4300 3410 c0 -39 1 -40 35 -40 34 0 35 1 35 40 0 39 -1 40 -35 40
-34 0 -35 -1 -35 -40z"/>
<path d="M4113 3419 c-31 -19 -33 -25 -33 -75 0 -53 0 -54 -30 -54 -27 0 -30
-3 -30 -30 0 -27 3 -30 30 -30 l30 0 0 -169 c0 -197 5 -210 80 -217 56 -6 75
5 66 39 -5 20 -13 26 -39 29 l-32 3 -3 158 -3 157 36 0 c32 0 35 2 35 30 0 28
-3 30 -35 30 l-34 0 -3 75 -3 74 -32 -20z"/>
<path d="M1545 3290 c-52 -16 -88 -62 -89 -115 -1 -64 35 -95 151 -131 103
-31 113 -37 113 -74 0 -86 -169 -95 -198 -10 -10 27 -14 29 -44 23 -18 -3 -34
-7 -36 -8 -9 -8 30 -75 57 -97 79 -67 244 -40 285 46 22 46 20 77 -7 117 -23
35 -54 49 -180 85 -44 12 -61 22 -70 41 -10 22 -8 28 16 49 52 45 148 25 168
-34 5 -14 69 -5 69 10 0 24 -33 69 -62 84 -38 19 -131 27 -173 14z"/>
<path d="M2453 3290 c-48 -11 -82 -37 -100 -75 -19 -40 -19 -40 24 -49 26 -6
32 -4 38 13 19 60 128 84 179 39 15 -13 29 -37 32 -55 6 -30 4 -32 -32 -42
-22 -5 -64 -13 -94 -16 -117 -15 -170 -57 -170 -135 0 -59 22 -95 70 -114 59
-24 109 -20 174 13 l56 28 6 -23 c5 -20 13 -24 45 -24 37 0 38 1 29 26 -6 14
-10 89 -11 167 0 82 -5 157 -12 177 -22 65 -127 96 -234 70z m172 -267 c-4
-27 -11 -56 -17 -66 -17 -32 -70 -57 -120 -57 -38 0 -50 5 -67 26 -47 60 -17
98 99 123 121 27 113 29 105 -26z"/>
<path d="M3703 3290 c-48 -11 -82 -37 -100 -75 -19 -40 -19 -40 24 -49 26 -6
32 -4 38 13 19 60 128 84 179 39 15 -13 29 -37 32 -55 6 -30 4 -32 -32 -42
-22 -5 -64 -13 -94 -16 -117 -15 -170 -57 -170 -135 0 -59 22 -95 70 -114 59
-24 109 -20 174 13 l56 28 6 -23 c5 -20 13 -24 45 -24 37 0 38 1 29 26 -6 14
-10 89 -11 167 0 82 -5 157 -12 177 -22 65 -127 96 -234 70z m172 -267 c-4
-27 -11 -56 -17 -66 -17 -32 -70 -57 -120 -57 -38 0 -50 5 -67 26 -47 60 -17
98 99 123 121 27 113 29 105 -26z"/>
<path d="M4588 3290 c-85 -26 -132 -104 -132 -220 0 -138 62 -216 181 -227 80
-7 155 32 190 97 22 40 24 55 21 141 -3 82 -6 101 -28 132 -46 68 -149 102
-232 77z m123 -66 c41 -21 69 -84 69 -154 0 -134 -93 -208 -188 -150 -42 26
-62 74 -62 150 0 76 20 124 62 150 40 24 78 25 119 4z"/>
<path d="M5075 3285 c-16 -9 -38 -24 -47 -32 -17 -15 -18 -14 -18 10 0 23 -4
27 -30 27 l-30 0 0 -220 0 -220 35 0 35 0 0 149 c0 82 4 161 10 175 12 32 65
66 103 66 18 0 39 -11 58 -29 l29 -29 0 -166 0 -166 35 0 35 0 0 178 c0 190
-4 210 -52 245 -37 27 -123 33 -163 12z"/>
<path d="M1290 3070 l0 -220 35 0 35 0 0 220 0 220 -35 0 -35 0 0 -220z"/>
<path d="M1890 3113 c0 -161 2 -181 20 -211 46 -75 170 -82 239 -13 l21 21 0
-30 c0 -27 3 -30 30 -30 l30 0 0 220 0 220 -35 0 -35 0 0 -150 c0 -172 -9
-202 -65 -226 -50 -21 -73 -17 -106 15 l-29 29 0 166 0 166 -35 0 -35 0 0
-177z"/>
<path d="M3000 3070 l0 -220 35 0 35 0 0 220 0 220 -35 0 -35 0 0 -220z"/>
<path d="M3160 3260 l0 -29 126 -3 125 -3 -135 -160 c-102 -120 -136 -167
-136 -187 l0 -28 190 0 190 0 0 30 0 29 -139 3 -140 3 135 162 c93 114 134
170 134 188 l0 25 -175 0 -175 0 0 -30z"/>
<path d="M4300 3070 l0 -220 35 0 35 0 0 220 0 220 -35 0 -35 0 0 -220z"/>
<path d="M4130 755 l0 -225 25 0 c19 0 25 5 25 22 0 20 1 20 20 3 10 -9 38
-19 62 -22 113 -12 185 130 129 253 -29 64 -112 93 -171 59 -14 -8 -28 -14
-32 -15 -5 0 -8 34 -8 75 0 73 -1 75 -25 75 l-25 0 0 -225z m193 37 c23 -21
39 -85 31 -127 -13 -72 -69 -109 -123 -81 -37 20 -55 64 -49 126 9 92 81 134
141 82z"/>
<path d="M4858 954 c-23 -12 -28 -21 -28 -54 0 -33 -3 -40 -20 -40 -13 0 -20
-7 -20 -20 0 -13 7 -20 19 -20 18 0 20 -10 23 -131 3 -116 5 -132 22 -145 25
-18 96 -19 96 -1 0 20 -14 34 -35 38 -18 4 -20 13 -23 122 l-3 117 26 0 c18 0
25 5 25 20 0 15 -7 20 -25 20 -22 0 -24 4 -27 54 l-3 54 -27 -14z"/>
<path d="M4540 842 c-19 -9 -45 -33 -58 -52 -21 -31 -23 -44 -20 -108 3 -70 5
-76 40 -107 64 -59 156 -59 215 0 38 38 41 51 12 60 -16 5 -28 -1 -47 -23 -15
-16 -38 -32 -51 -35 -40 -9 -90 18 -106 57 -8 20 -15 38 -15 41 0 3 56 5 125
5 l125 0 -6 43 c-17 112 -117 168 -214 119z m99 -33 c32 -11 67 -61 56 -79 -3
-6 -44 -10 -91 -10 -75 0 -84 2 -84 19 0 26 36 69 63 74 12 2 22 5 23 6 1 0
15 -4 33 -10z"/>
<path d="M5060 847 c-42 -15 -82 -74 -59 -88 24 -15 37 -10 51 18 25 52 119
51 148 0 19 -35 8 -43 -70 -53 -65 -8 -118 -28 -136 -52 -21 -27 -17 -78 9
-107 39 -46 111 -45 199 3 3 1 9 -6 13 -17 4 -15 15 -21 36 -21 26 0 29 2 19
19 -5 11 -10 70 -10 131 0 61 -5 120 -11 132 -23 42 -116 60 -189 35z m145
-189 c-15 -69 -89 -108 -140 -74 -31 20 -33 61 -5 76 22 12 90 27 128 29 21 1
23 -2 17 -31z"/>
</g>
</svg>
