<?xml version="1.0" standalone="no"?>
<!DOCTYPE svg PUBLIC "-//W3C//DTD SVG 20010904//EN"
 "http://www.w3.org/TR/2001/REC-SVG-20010904/DTD/svg10.dtd">
<svg version="1.0" xmlns="http://www.w3.org/2000/svg"
 width="605.000000pt" height="604.000000pt" viewBox="0 0 605.000000 604.000000"
 preserveAspectRatio="xMidYMid meet">

<g transform="translate(0.000000,604.000000) scale(0.100000,-0.100000)"
fill="#ffffff" stroke="none">
<path d="M303 6025 c-152 -41 -261 -157 -293 -310 -7 -34 -9 -912 -8 -2725 l3
-2675 23 -57 c42 -104 126 -188 230 -230 l57 -23 2710 0 2710 0 57 23 c104 42
188 126 230 230 l23 57 0 2705 0 2705 -23 57 c-42 104 -126 188 -230 230 l-57
23 -2690 2 c-2295 1 -2698 0 -2742 -12z m5479 -108 c65 -32 121 -89 152 -156
l21 -46 0 -2695 0 -2695 -21 -46 c-31 -67 -87 -124 -152 -156 l-57 -28 -2700
0 -2700 0 -46 21 c-67 31 -124 87 -156 152 l-28 57 -3 2675 c-2 2936 -7 2729
57 2817 39 54 91 93 154 115 50 17 180 17 2737 15 l2685 -2 57 -28z"/>
<path d="M1230 5049 l0 -271 143 4 c156 4 184 13 231 69 45 54 59 97 60 194 1
110 -19 169 -74 219 -51 46 -92 56 -237 56 l-123 0 0 -271z m291 188 c14 -9
36 -36 49 -59 33 -58 35 -180 3 -250 -29 -64 -64 -81 -180 -86 l-93 -4 0 212
0 212 98 -4 c69 -3 104 -9 123 -21z"/>
<path d="M2430 5280 c0 -38 2 -40 30 -40 28 0 30 2 30 40 0 38 -2 40 -30 40
-28 0 -30 -2 -30 -40z"/>
<path d="M3590 5280 c0 -39 1 -40 35 -40 34 0 35 1 35 40 0 39 -1 40 -35 40
-34 0 -35 -1 -35 -40z"/>
<path d="M3428 5280 c-24 -13 -28 -21 -28 -62 0 -44 -2 -48 -25 -48 -20 0 -25
-5 -25 -25 0 -20 5 -25 25 -25 l25 0 0 -154 0 -155 26 -20 c26 -20 67 -27 96
-16 9 4 13 16 10 34 -3 22 -8 28 -23 24 -42 -11 -49 11 -49 153 l0 134 35 0
c31 0 35 3 35 25 0 22 -4 25 -35 25 l-34 0 -3 63 -3 63 -27 -16z"/>
<path d="M1856 5170 c-67 -20 -115 -100 -116 -190 0 -81 15 -123 59 -163 82
-74 230 -56 276 33 19 37 18 38 -21 46 -26 5 -32 2 -42 -21 -15 -32 -70 -57
-111 -49 -38 8 -76 49 -89 97 l-10 37 144 0 144 0 0 48 c-1 120 -113 198 -234
162z m136 -79 c14 -14 28 -37 30 -51 l3 -25 -107 -3 c-121 -3 -127 1 -88 65
34 57 112 64 162 14z"/>
<path d="M2259 5149 l-29 -31 0 26 c0 22 -4 26 -30 26 l-30 0 0 -195 0 -195
34 0 34 0 4 144 c3 126 5 147 23 166 15 16 29 21 59 18 33 -2 41 1 50 21 8 19
7 26 -9 37 -32 24 -74 17 -106 -17z"/>
<path d="M3047 5166 c-48 -17 -62 -30 -77 -67 -15 -34 -14 -35 22 -44 21 -5
27 -3 32 13 12 38 44 56 98 56 43 0 54 -4 74 -28 49 -56 28 -74 -106 -91 -99
-13 -140 -48 -140 -122 0 -65 40 -105 111 -110 44 -4 63 0 103 21 51 26 66 26
66 0 0 -9 11 -14 36 -14 31 0 35 3 28 18 -4 9 -10 85 -13 168 -5 113 -10 156
-21 169 -36 43 -137 58 -213 31z m168 -233 c-9 -53 -31 -82 -72 -100 -39 -16
-94 -11 -111 10 -21 26 -22 54 -5 76 17 20 111 47 172 50 22 1 23 -2 16 -36z"/>
<path d="M4210 5158 c-77 -39 -113 -139 -90 -243 22 -99 97 -153 201 -143 56
6 93 28 127 79 l23 34 -31 9 c-28 8 -34 6 -60 -26 -65 -79 -175 -45 -196 60
l-6 32 146 0 146 0 0 38 c0 45 -29 109 -61 139 -53 48 -129 56 -199 21z m148
-54 c13 -8 27 -26 32 -40 20 -53 18 -54 -94 -54 -58 0 -107 4 -110 8 -11 17
30 78 64 95 37 19 69 16 108 -9z"/>
<path d="M4604 5166 c-43 -19 -64 -53 -64 -101 0 -63 33 -88 153 -120 51 -13
71 -23 79 -40 15 -33 -5 -62 -50 -76 -52 -15 -109 8 -125 51 -12 31 -16 33
-54 22 -22 -7 -22 -7 -4 -47 23 -52 59 -75 125 -82 104 -11 176 39 176 122 0
63 -20 81 -135 118 -90 29 -100 35 -103 58 -4 35 20 52 74 53 41 1 50 -3 74
-32 22 -27 32 -32 54 -26 32 8 33 23 4 59 -40 52 -135 71 -204 41z"/>
<path d="M2430 4975 l0 -195 30 0 30 0 0 195 0 195 -30 0 -30 0 0 -195z"/>
<path d="M2625 4978 l73 -193 32 0 33 0 72 190 72 190 -30 3 c-17 2 -33 -2
-38 -10 -5 -7 -30 -75 -56 -150 -43 -123 -63 -163 -63 -125 0 7 -22 73 -49
147 l-48 135 -36 3 -35 3 73 -193z"/>
<path d="M3590 4975 l0 -195 35 0 35 0 0 195 0 195 -35 0 -35 0 0 -195z"/>
<path d="M3749 5093 c118 -315 114 -308 148 -311 29 -3 32 0 51 50 11 29 43
113 71 186 28 74 51 138 51 143 0 6 -14 9 -32 7 -31 -3 -32 -5 -80 -138 -27
-74 -51 -142 -54 -150 -3 -8 -23 33 -45 95 -74 209 -66 195 -105 195 l-33 0
28 -77z"/>
<path d="M2341 4246 c-7 -8 -31 -84 -53 -168 -22 -84 -54 -202 -70 -263 -30
-113 -43 -199 -123 -845 -25 -206 -50 -385 -55 -397 l-10 -23 -282 0 -283 0
-50 80 c-55 88 -62 92 -175 105 -52 6 -62 3 -190 -56 -196 -90 -280 -108 -522
-116 l-198 -6 0 -28 0 -28 535 6 c440 5 537 4 550 -7 25 -21 50 -76 83 -185
88 -290 116 -376 175 -545 86 -246 84 -240 105 -240 26 0 171 118 177 144 3
11 35 197 70 411 36 215 68 398 71 408 5 16 24 17 267 15 l262 -3 26 -160 c14
-88 46 -292 70 -454 l44 -294 75 -141 c103 -192 101 -192 201 -3 60 112 90
183 134 323 54 170 225 679 240 717 7 16 31 17 367 15 l360 -3 42 -101 c33
-77 62 -125 120 -198 77 -96 78 -97 114 -92 20 3 60 8 87 11 49 6 53 9 215
175 91 93 181 178 200 189 34 20 49 21 413 21 l377 0 0 28 0 28 -117 12 c-65
7 -174 21 -243 32 -69 11 -153 20 -188 20 -71 0 -187 -29 -236 -60 -32 -19
-48 -20 -378 -20 -264 0 -348 3 -356 13 -6 6 -54 120 -107 252 -98 243 -133
306 -236 416 -27 29 -29 29 -62 15 -20 -8 -60 -30 -91 -50 -53 -34 -59 -42
-127 -178 -40 -79 -100 -215 -134 -303 l-63 -160 -343 0 -343 0 -7 40 c-4 22
-37 281 -73 575 -71 568 -65 534 -178 935 -44 153 -58 176 -87 141z m48 -233
c11 -38 34 -115 51 -173 25 -86 44 -210 104 -690 41 -322 72 -588 70 -592 -3
-5 -117 -8 -255 -8 l-249 0 0 33 c0 17 14 136 30 262 16 127 46 361 65 520 31
251 44 318 91 498 30 114 54 209 54 212 0 3 4 5 10 5 5 0 18 -30 29 -67z
m1426 -841 c9 -6 55 -62 103 -124 20 -26 202 -480 196 -490 -6 -10 -661 -11
-667 0 -8 13 107 293 176 430 61 119 72 135 115 162 49 31 61 34 77 22z
m-2502 -514 c18 -9 67 -80 67 -98 0 -6 -76 -10 -215 -10 -118 0 -215 4 -215 9
0 4 55 33 123 64 110 50 127 55 172 50 28 -3 58 -10 68 -15z m3872 -98 c15 -6
8 -9 -27 -9 -27 -1 -48 4 -48 9 0 12 47 12 75 0z m-3155 -62 c0 -7 -30 -192
-67 -412 l-67 -398 -45 -34 c-24 -19 -49 -33 -54 -31 -5 1 -17 25 -26 52 -46
129 -142 421 -171 515 -17 58 -47 151 -66 208 -19 56 -34 105 -34 107 0 3 119
5 265 5 205 0 265 -3 265 -12z m1314 4 c2 -4 -59 -198 -136 -432 -104 -317
-154 -453 -195 -535 -31 -60 -59 -114 -64 -119 -9 -10 -44 44 -92 141 -32 63
-38 92 -82 383 -25 173 -55 368 -66 434 -10 65 -16 122 -13 127 6 11 641 12
648 1z m1476 0 c0 -4 -66 -77 -148 -162 l-147 -153 -61 -5 -61 -4 -62 81 c-57
75 -121 199 -121 235 0 14 35 16 300 16 165 0 300 -4 300 -8z"/>
</g>
</svg>
