<?xml version="1.0" standalone="no"?>
<!DOCTYPE svg PUBLIC "-//W3C//DTD SVG 20010904//EN"
 "http://www.w3.org/TR/2001/REC-SVG-20010904/DTD/svg10.dtd">
<svg version="1.0" xmlns="http://www.w3.org/2000/svg"
 width="605.000000pt" height="605.000000pt" viewBox="0 0 605.000000 605.000000"
 preserveAspectRatio="xMidYMid meet">

<g transform="translate(0.000000,605.000000) scale(0.100000,-0.100000)"
fill="#ffffff" stroke="none">
<path d="M303 6035 c-152 -41 -261 -157 -293 -310 -7 -34 -9 -913 -8 -2730 l3
-2680 23 -57 c42 -104 126 -188 230 -230 l57 -23 2710 0 2710 0 57 23 c104 42
188 126 230 230 l23 57 0 2710 0 2710 -23 57 c-42 104 -126 188 -230 230 l-57
23 -2690 2 c-2295 1 -2698 0 -2742 -12z m5479 -108 c65 -32 121 -89 152 -156
l21 -46 0 -2700 0 -2700 -21 -46 c-31 -67 -87 -124 -152 -156 l-57 -28 -2700
0 -2700 0 -46 21 c-67 31 -124 87 -156 152 l-28 57 -3 2680 c-2 2941 -7 2734
57 2822 39 54 91 93 154 115 50 17 180 17 2737 15 l2685 -2 57 -28z"/>
<path d="M1320 5049 l0 -271 143 4 c124 3 147 6 184 26 82 43 119 135 111 276
-3 67 -9 92 -31 129 -51 87 -104 107 -284 107 l-123 0 0 -271z m297 185 c16
-11 38 -40 51 -65 20 -38 23 -55 20 -130 -4 -94 -22 -136 -71 -173 -22 -16
-46 -21 -127 -24 l-100 -4 0 212 0 212 100 -4 c80 -3 105 -8 127 -24z"/>
<path d="M2520 5280 c0 -38 2 -40 30 -40 28 0 30 2 30 40 0 38 -2 40 -30 40
-28 0 -30 -2 -30 -40z"/>
<path d="M3690 5280 c0 -38 2 -40 30 -40 28 0 30 2 30 40 0 38 -2 40 -30 40
-28 0 -30 -2 -30 -40z"/>
<path d="M3513 5278 c-19 -9 -23 -19 -23 -60 0 -45 -2 -48 -25 -48 -20 0 -25
-5 -25 -25 0 -20 5 -25 25 -25 l25 0 0 -150 c0 -147 1 -152 25 -175 16 -17 35
-25 57 -25 46 0 60 12 53 42 -5 20 -11 24 -30 20 -38 -7 -46 24 -43 160 l3
123 33 3 c26 3 32 7 32 28 0 21 -5 24 -35 24 l-35 0 0 60 c0 63 -2 65 -37 48z"/>
<path d="M1934 5162 c-76 -36 -110 -109 -101 -214 11 -126 98 -192 224 -173
36 5 56 16 85 45 45 44 48 65 11 75 -22 5 -31 1 -50 -24 -33 -42 -81 -56 -127
-37 -38 16 -76 67 -76 104 0 22 1 22 146 22 l147 0 -7 52 c-4 28 -14 64 -22
79 -39 75 -148 109 -230 71z m122 -47 c37 -15 74 -79 56 -97 -5 -5 -53 -7
-108 -6 -99 3 -99 3 -96 28 1 13 14 37 29 52 22 23 35 30 76 37 4 0 23 -6 43
-14z"/>
<path d="M2359 5151 l-29 -29 0 24 c0 20 -5 24 -30 24 l-30 0 0 -195 0 -195
29 0 29 0 4 135 c3 117 6 138 25 162 17 23 28 28 61 27 37 -1 42 3 51 28 9 26
8 30 -15 38 -42 16 -64 12 -95 -19z"/>
<path d="M3145 5168 c-40 -14 -72 -44 -84 -79 -9 -26 -7 -28 20 -34 17 -4 31
-5 33 -3 1 1 7 15 14 30 15 36 78 54 128 38 36 -12 54 -35 54 -69 0 -22 -31
-33 -125 -46 -93 -13 -145 -55 -145 -120 0 -99 116 -146 226 -90 27 14 50 25
50 25 1 0 4 -9 7 -20 4 -14 14 -20 35 -20 l29 0 -3 68 c-2 37 -5 110 -7 162
-2 53 -9 105 -15 117 -24 44 -143 67 -217 41z m150 -288 c-17 -33 -66 -60
-108 -60 -33 0 -77 37 -77 63 0 42 27 61 105 72 28 4 59 11 70 15 17 6 20 3
23 -26 2 -18 -4 -47 -13 -64z"/>
<path d="M4315 5166 c-37 -17 -80 -62 -94 -99 -20 -52 -14 -159 12 -207 59
-112 242 -121 307 -16 25 42 25 44 -16 52 -25 5 -32 1 -44 -22 -18 -34 -70
-57 -108 -48 -56 14 -76 37 -97 112 l-6 22 145 0 146 0 0 43 c0 125 -132 213
-245 163z m148 -77 c15 -16 27 -40 27 -54 l0 -25 -105 0 c-103 0 -105 1 -105
23 0 52 67 101 125 91 17 -3 42 -19 58 -35z"/>
<path d="M4695 5161 c-44 -19 -65 -53 -65 -102 0 -47 42 -82 125 -104 88 -22
115 -39 115 -69 0 -36 -34 -59 -85 -59 -48 0 -80 20 -96 61 -7 18 -14 21 -36
16 -39 -10 -40 -11 -18 -51 28 -51 65 -75 124 -81 100 -9 181 46 181 123 0 60
-39 91 -150 120 -65 17 -100 38 -100 60 0 47 117 68 151 27 9 -12 19 -27 21
-33 2 -6 14 -8 31 -4 33 9 35 32 7 68 -37 47 -135 60 -205 28z"/>
<path d="M2520 4975 l0 -195 30 0 30 0 0 195 0 195 -30 0 -30 0 0 -195z"/>
<path d="M2652 5158 c3 -7 36 -95 74 -195 69 -183 69 -183 100 -183 30 0 30 0
99 183 38 100 70 188 73 195 3 8 -7 12 -29 12 l-34 0 -54 -150 c-29 -83 -54
-150 -56 -150 -1 0 -26 68 -55 150 l-52 150 -35 0 c-24 0 -34 -4 -31 -12z"/>
<path d="M3690 4975 l0 -195 30 0 30 0 0 195 0 195 -30 0 -30 0 0 -195z"/>
<path d="M3885 4978 l73 -193 32 0 33 0 72 190 72 190 -30 3 c-17 2 -33 -2
-38 -10 -5 -7 -30 -75 -56 -150 -43 -123 -63 -163 -63 -125 0 7 -22 73 -49
147 l-48 135 -36 3 -35 3 73 -193z"/>
<path d="M3918 4188 c-49 -76 -86 -404 -158 -1383 -16 -225 -34 -427 -40 -447
-14 -49 -70 -122 -97 -126 -12 -2 -31 7 -43 20 -26 27 -153 286 -169 344 -6
22 -22 193 -36 379 -47 629 -91 989 -126 1031 -20 24 -48 16 -62 -19 -37 -87
-83 -477 -132 -1117 -8 -107 -20 -253 -26 -323 l-12 -129 -41 -45 c-75 -82
-137 -52 -212 102 -40 82 -47 109 -64 227 -50 348 -90 472 -148 454 -31 -10
-58 -73 -122 -285 -85 -283 -102 -315 -183 -341 -47 -15 -83 -62 -109 -142
-21 -68 -78 -347 -78 -384 0 -13 -4 -25 -9 -28 -11 -7 -39 141 -86 449 -66
439 -95 609 -120 698 -30 105 -51 139 -83 134 -28 -5 -27 -13 -47 243 -34 430
-65 600 -109 600 -17 0 -42 -60 -55 -130 -9 -47 -25 -189 -46 -395 -5 -53 -44
-565 -70 -930 -26 -368 -28 -386 -35 -378 -4 4 -29 67 -55 138 -74 203 -122
285 -167 285 -10 0 -18 2 -18 5 0 2 -9 68 -20 147 -35 241 -64 332 -104 326
-47 -7 -71 -87 -136 -456 -51 -286 -83 -428 -110 -489 -17 -40 -23 -45 -34
-32 -13 14 -71 178 -120 340 -27 91 -56 139 -85 139 -28 0 -41 -21 -41 -64 l1
-41 15 28 c16 30 37 32 42 4 2 -11 -3 -17 -14 -17 -34 0 -43 -31 -43 -140 l0
-105 23 68 c36 107 50 111 80 23 18 -57 20 -80 6 -71 -6 4 -23 -7 -39 -23 -43
-43 -71 -144 -70 -251 l1 -86 15 65 c25 111 62 227 77 239 22 18 52 -29 82
-128 52 -176 87 -241 128 -241 51 0 84 63 172 332 76 232 122 344 137 329 5
-5 26 -173 48 -373 64 -606 91 -771 130 -783 24 -8 38 1 51 33 17 45 45 238
63 432 20 225 21 230 43 230 26 0 59 38 77 90 27 76 61 232 115 524 28 154 52
282 55 284 6 7 14 -74 30 -318 67 -1006 111 -1422 160 -1497 13 -19 19 -21 39
-12 13 7 27 21 30 33 27 91 48 195 70 341 36 239 36 236 47 229 6 -3 21 -3 35
0 38 10 73 96 144 352 87 316 129 421 187 476 46 43 78 41 133 -8 67 -61 107
-123 114 -179 3 -27 22 -183 41 -345 62 -521 96 -699 137 -724 26 -16 49 2 65
50 23 64 61 332 88 624 30 315 46 384 119 509 49 83 95 131 125 131 10 0 27
-10 38 -22 52 -58 54 -65 74 -345 82 -1152 109 -1413 156 -1525 10 -24 23 -38
34 -38 64 0 97 245 174 1272 26 358 24 346 112 523 48 97 79 135 107 135 32 0
77 -53 121 -141 35 -69 35 -71 55 -317 50 -616 96 -954 139 -1020 14 -23 55
-10 70 23 36 75 54 179 151 870 28 197 56 371 63 385 8 17 25 28 50 34 35 9
47 5 164 -54 152 -77 197 -83 360 -51 85 16 111 18 165 9 55 -10 72 -9 133 10
125 37 166 37 235 2 l60 -30 0 54 c0 54 -1 56 -43 81 -50 29 -74 31 -137 11
-59 -19 -208 -46 -256 -46 -42 0 -126 -13 -222 -35 -56 -13 -67 -13 -93 0 -37
20 -80 79 -163 226 -65 116 -111 169 -145 169 -43 0 -88 -84 -122 -226 -27
-113 -32 -122 -129 -226 -68 -74 -87 -88 -112 -88 -37 0 -80 42 -121 117 -29
54 -30 61 -87 813 -20 253 -60 635 -80 755 -29 170 -65 231 -102 173z m61
-173 c32 -190 109 -996 99 -1027 -2 -6 -14 36 -26 93 -27 131 -66 213 -104
217 -18 2 -31 -4 -42 -20 -19 -26 -60 -156 -76 -241 -7 -32 -13 -57 -15 -55
-11 12 68 856 96 1020 31 189 39 190 68 13z m-2345 -112 c14 -95 56 -525 56
-569 0 -11 -4 -12 -19 -5 -23 13 -51 -16 -73 -74 -18 -46 -57 -242 -93 -460
l-25 -150 6 120 c8 177 61 849 79 1005 21 180 36 263 45 253 4 -4 15 -58 24
-120z m1612 -29 c16 -86 59 -490 69 -649 l6 -100 -21 60 c-28 78 -50 101 -80
85 -31 -17 -57 -82 -90 -228 -16 -70 -29 -118 -29 -107 -3 76 71 790 95 925
23 128 27 129 50 14z m-1560 -640 c14 -37 15 -50 6 -63 -44 -59 -103 -258
-153 -511 -28 -142 -18 -20 16 186 48 294 81 434 104 434 5 0 17 -21 27 -46z
m2285 -19 c19 -42 79 -283 79 -315 0 -8 -10 3 -23 25 -12 22 -34 46 -49 55
-26 14 -29 13 -58 -15 -16 -16 -43 -62 -60 -104 l-31 -76 7 55 c17 152 86 420
109 420 3 0 15 -20 26 -45z m-697 -90 c8 -33 21 -95 29 -138 l15 -78 -22 20
c-52 49 -96 10 -145 -124 -17 -47 -31 -91 -31 -97 0 -6 -2 -9 -5 -7 -6 7 41
285 67 389 11 47 27 98 35 114 l15 30 13 -25 c7 -13 20 -51 29 -84z m-1466
-17 c26 -103 42 -184 41 -206 0 -9 -13 30 -28 88 -14 58 -37 124 -50 147 -14
24 -21 48 -17 58 12 31 32 -2 54 -87z m-744 -65 c16 -66 46 -252 46 -285 0
-11 -6 -15 -20 -11 -51 13 -87 -59 -160 -314 -52 -185 -93 -294 -115 -313 -9
-7 -16 -6 -26 7 -11 13 -11 17 -1 21 7 2 21 20 31 40 36 71 61 183 126 552 49
276 77 386 95 375 4 -3 15 -35 24 -72z m1545 -52 c11 -47 23 -108 26 -136 l7
-50 -21 33 c-38 59 -82 61 -131 5 -37 -41 -37 -36 -4 80 28 100 48 153 66 175
18 22 34 -7 57 -107z m1381 -83 c20 -32 80 -206 80 -230 0 -7 -15 2 -32 19
-18 16 -41 33 -51 36 -34 12 -86 -19 -119 -73 -17 -27 -33 -50 -35 -50 -14 0
73 273 98 303 27 35 35 34 59 -5z m-704 -40 c20 -39 54 -136 54 -155 0 -12 -4
-11 -22 1 -40 29 -86 20 -129 -23 -22 -21 -39 -33 -39 -27 0 7 13 51 29 98 47
139 75 167 107 106z m-1429 -20 c-3 -8 -6 -5 -6 6 -1 11 2 17 5 13 3 -3 4 -12
1 -19z m731 -35 c22 -33 55 -113 48 -120 -2 -3 -16 3 -30 12 -26 17 -101 18
-139 0 -17 -7 -17 -4 3 36 25 50 68 99 86 99 7 0 21 -12 32 -27z m-713 -323
c59 -343 96 -517 126 -588 23 -53 23 -58 4 -42 -34 28 -75 188 -120 463 -34
213 -75 490 -74 502 2 25 12 -29 64 -335z m-284 153 c-57 -301 -93 -436 -125
-463 -23 -19 -28 5 -10 52 49 128 77 226 116 398 23 105 44 187 46 182 2 -6
-10 -81 -27 -169z m3122 148 c14 -17 46 -70 72 -118 27 -48 61 -107 77 -130
47 -70 15 -49 -72 46 -89 98 -126 121 -165 103 -14 -7 -25 -10 -25 -8 0 12 33
94 46 113 19 31 37 29 67 -6z m-2918 -141 c34 -245 87 -549 111 -644 35 -138
67 -196 106 -196 16 0 19 -5 14 -27 -3 -16 -8 -50 -11 -78 -20 -154 -69 -416
-84 -443 -23 -42 -58 187 -96 623 -16 192 -66 873 -64 890 2 22 9 -14 24 -125z
m-695 30 c9 -17 7 -22 -17 -31 -15 -5 -34 -17 -40 -26 -22 -28 -16 7 7 45 23
37 35 40 50 12z m137 -114 c28 -56 125 -318 119 -323 -7 -7 -43 61 -94 177
-28 63 -60 133 -72 155 -11 21 -20 48 -20 59 0 19 0 19 21 0 12 -10 32 -41 46
-68z m3449 68 c17 -14 17 -15 1 -10 -10 3 -30 6 -43 6 -14 0 -22 4 -19 10 9
15 39 12 61 -6z m-3169 -66 c-3 -8 -6 -5 -6 6 -1 11 2 17 5 13 3 -3 4 -12 1
-19z m3169 6 c17 -14 17 -15 1 -10 -10 3 -32 6 -48 6 -18 0 -28 4 -24 10 9 15
49 12 71 -6z m-2411 -151 c-18 -43 -64 -153 -101 -246 -37 -92 -69 -166 -71
-164 -6 7 46 271 68 342 26 85 44 114 84 131 54 24 56 17 20 -63z m2126 -153
c-37 -85 -73 -140 -92 -140 -19 0 -49 47 -73 112 -14 38 -26 73 -26 78 0 5 17
-2 38 -16 51 -35 93 -28 146 25 22 22 42 39 43 37 2 -2 -14 -45 -36 -96z
m-3117 -196 c27 -59 58 -83 82 -63 8 6 16 10 18 8 10 -10 -42 -440 -60 -502
-14 -47 -31 17 -59 218 -17 123 -65 572 -64 595 0 8 14 -34 30 -94 16 -60 40
-133 53 -162z m20 167 c16 -25 41 -48 61 -57 l34 -14 -16 -47 c-8 -27 -21 -54
-28 -62 -18 -19 -36 19 -75 152 -32 110 -38 153 -16 101 8 -17 26 -50 40 -73z
m1510 24 c49 -100 106 -141 144 -103 22 22 22 2 -2 -83 -25 -93 -41 -129 -57
-129 -18 0 -56 102 -89 236 -17 71 -33 135 -35 142 -10 30 5 6 39 -63z m726
-31 c39 -54 90 -64 133 -26 24 21 23 3 -7 -84 -27 -81 -53 -134 -65 -134 -34
0 -66 84 -127 335 -3 11 7 0 23 -25 15 -25 35 -55 43 -66z m-540 70 c-29 -76
-65 -117 -90 -104 -16 9 -60 69 -60 83 0 3 17 3 38 0 29 -4 45 1 72 20 45 32
52 33 40 1z m1430 -411 c-57 -419 -99 -643 -120 -643 -21 0 -58 222 -90 534
-25 246 -25 256 4 179 31 -84 52 -113 80 -113 44 0 79 63 125 224 17 60 31
116 32 125 0 9 3 11 5 4 3 -6 -13 -145 -36 -310z m-39 192 c-32 -108 -62 -178
-81 -190 -14 -8 -46 65 -70 161 -26 100 -25 114 2 78 29 -38 38 -44 70 -44 27
0 70 41 91 87 23 51 17 8 -12 -92z m-885 -22 c42 -119 88 -146 142 -84 19 22
22 23 18 6 -2 -11 -7 -36 -11 -55 -3 -19 -15 -75 -27 -125 -29 -126 -56 -175
-71 -127 -26 82 -41 151 -67 302 -31 179 -37 241 -19 185 6 -16 22 -62 35
-102z m-666 -103 c37 -73 82 -74 119 -2 25 45 24 51 6 -118 -20 -177 -49 -356
-65 -395 l-13 -30 -14 45 c-7 25 -22 95 -33 155 -20 115 -70 503 -69 533 0 9
11 -20 25 -66 13 -46 33 -101 44 -122z m-2020 98 c0 -16 -23 -19 -38 -4 -15
15 -14 16 11 14 15 -1 27 -6 27 -10z m39 -30 c-17 -34 -41 -58 -50 -52 -5 3 6
20 24 39 38 40 41 42 26 13z m2631 -257 c26 -111 49 -155 83 -159 22 -3 29 4
48 39 12 24 32 83 44 133 30 115 30 91 5 -214 -25 -303 -56 -570 -75 -664 -8
-39 -15 -75 -15 -79 0 -5 -4 -6 -9 -3 -12 8 -37 149 -55 316 -19 163 -66 731
-65 768 1 29 0 32 39 -137z"/>
</g>
</svg>
