<?xml version="1.0" standalone="no"?>
<!DOCTYPE svg PUBLIC "-//W3C//DTD SVG 20010904//EN"
 "http://www.w3.org/TR/2001/REC-SVG-20010904/DTD/svg10.dtd">
<svg version="1.0" xmlns="http://www.w3.org/2000/svg"
 width="605.000000pt" height="604.000000pt" viewBox="0 0 605.000000 604.000000"
 preserveAspectRatio="xMidYMid meet">

<g transform="translate(0.000000,604.000000) scale(0.100000,-0.100000)"
fill="#ffffff" stroke="none">
<path d="M303 6025 c-152 -41 -261 -157 -293 -310 -7 -34 -9 -912 -8 -2725 l3
-2675 23 -57 c42 -104 126 -188 230 -230 l57 -23 2710 0 2710 0 57 23 c104 42
188 126 230 230 l23 57 0 2705 0 2705 -23 57 c-42 104 -126 188 -230 230 l-57
23 -2690 2 c-2295 1 -2698 0 -2742 -12z m5479 -108 c65 -32 121 -89 152 -156
l21 -46 0 -2695 0 -2695 -21 -46 c-31 -67 -87 -124 -152 -156 l-57 -28 -2700
0 -2700 0 -46 21 c-67 31 -124 87 -156 152 l-28 57 -3 2675 c-2 2936 -7 2729
57 2817 39 54 91 93 154 115 50 17 180 17 2737 15 l2685 -2 57 -28z"/>
<path d="M2813 5316 c-89 -28 -144 -96 -164 -201 -12 -68 1 -166 31 -226 77
-149 321 -158 406 -14 31 53 29 76 -8 86 -24 6 -29 3 -50 -39 -28 -56 -62 -82
-116 -89 -98 -13 -171 47 -191 160 -22 121 21 231 103 262 86 33 163 7 202
-68 12 -23 19 -26 42 -21 42 10 43 13 22 54 -47 92 -162 132 -277 96z"/>
<path d="M2470 5050 l0 -270 35 0 35 0 0 270 0 270 -35 0 -35 0 0 -270z"/>
<path d="M3255 5063 c-54 -142 -100 -264 -103 -271 -3 -10 5 -13 33 -10 38 3
39 4 66 78 l27 75 114 3 115 3 29 -78 30 -78 41 -3 42 -3 -105 258 c-58 142
-108 264 -111 271 -3 6 -22 12 -43 12 l-37 0 -98 -257z m183 59 c23 -62 42
-115 42 -117 0 -3 -40 -5 -89 -5 l-90 0 31 83 c17 45 35 101 41 125 6 23 14
39 17 35 4 -5 26 -59 48 -121z"/>
<path d="M2366 4322 c-2 -4 -37 -136 -76 -292 l-71 -285 -59 -505 c-33 -278
-65 -550 -71 -605 -7 -55 -16 -106 -22 -112 -13 -18 -42 -16 -57 2 -7 8 -23
15 -35 15 -12 0 -28 -7 -35 -15 -16 -20 -74 -19 -105 1 -23 15 -27 15 -51 -1
-19 -12 -37 -15 -68 -10 -52 8 -90 8 -144 -1 -55 -8 -76 10 -132 112 -44 81
-59 89 -170 101 -53 5 -61 3 -190 -62 -74 -37 -172 -78 -217 -91 -87 -26 -247
-40 -430 -39 l-103 0 0 -35 0 -35 93 2 c424 8 1005 8 1019 1 25 -12 46 -57 74
-157 14 -47 31 -108 39 -136 8 -27 33 -115 56 -195 67 -238 171 -564 183 -572
6 -4 16 -8 22 -8 13 0 155 114 165 132 8 15 44 243 125 778 23 155 24 158 47
164 12 3 124 6 248 6 165 0 229 -3 241 -12 15 -12 47 -202 130 -763 11 -77 24
-149 29 -161 8 -24 153 -144 173 -144 17 0 32 18 41 50 4 14 35 115 70 225 74
237 78 252 150 510 60 218 86 283 119 290 12 2 198 3 414 2 l394 -2 18 -22
c23 -28 41 -29 65 -2 19 20 28 20 370 19 192 -1 518 -1 723 -1 l372 1 0 30 c0
28 -2 30 -40 30 -22 0 -40 4 -40 9 0 17 -54 21 -67 5 -13 -17 -98 -16 -98 1
-1 40 -51 48 -65 10 -8 -22 -15 -25 -60 -25 l-51 0 6 34 c6 29 4 34 -16 39
-32 9 -41 -1 -37 -39 l4 -34 -59 0 c-34 0 -56 4 -52 10 3 5 3 21 -1 35 -5 21
-12 25 -33 23 -22 -2 -26 -8 -26 -33 l0 -30 -385 -3 c-433 -3 -638 7 -753 38
-43 11 -141 52 -217 90 -149 74 -166 78 -264 58 -64 -12 -66 -14 -129 -128
l-42 -75 -282 -2 c-156 0 -285 2 -287 6 -7 10 -27 173 -122 990 -8 69 -17 149
-20 176 -3 28 -39 183 -80 344 -41 162 -74 296 -74 298 0 7 -49 2 -54 -5z m90
-393 c53 -214 53 -209 134 -914 22 -192 43 -365 46 -383 4 -28 2 -34 -15 -39
-26 -7 -28 -50 -3 -69 14 -11 -19 -13 -210 -14 l-227 0 -17 36 c-18 38 -17 67
10 299 28 228 86 730 92 785 9 89 115 511 127 507 6 -2 34 -96 63 -208z
m-1141 -1271 c40 -11 48 -18 75 -69 16 -31 30 -62 30 -68 0 -14 -67 -15 -75
-1 -3 6 -19 10 -35 10 -16 0 -32 -4 -35 -10 -3 -5 -24 -10 -45 -10 -21 0 -42
5 -45 10 -3 6 -19 10 -35 10 -16 0 -32 -4 -35 -10 -10 -17 -88 -11 -113 8 -23
18 -22 18 95 79 126 65 147 70 218 51z m2213 -18 c15 -25 38 -26 51 -2 9 15
21 11 133 -43 186 -91 186 -85 3 -85 -99 0 -171 5 -192 12 -27 10 -38 10 -53
0 -27 -17 -100 -16 -100 1 0 29 60 122 82 129 42 11 63 8 76 -12z m-2591 -126
c-3 -3 -12 -4 -19 -1 -8 3 -5 6 6 6 11 1 17 -2 13 -5z m1120 -47 c7 -8 -14
-165 -59 -457 l-69 -445 -42 -37 c-23 -20 -46 -36 -52 -34 -15 4 -120 330
-196 611 -17 61 -37 135 -46 165 -8 30 -19 69 -23 85 -4 17 -15 47 -24 69 -9
21 -16 40 -16 41 0 8 50 10 276 12 182 2 244 0 251 -10z m1171 7 c28 -6 30 -9
21 -26 -10 -19 -74 -241 -126 -433 -21 -81 -47 -164 -133 -434 -14 -47 -31
-86 -36 -88 -5 -2 -29 14 -53 35 -48 42 -43 24 -86 307 -8 55 -33 217 -55 359
-22 142 -38 262 -35 265 3 3 15 -1 26 -8 17 -10 24 -10 37 2 10 8 24 17 32 20
21 8 371 8 408 1z"/>
<path d="M2441 2601 c-21 -14 -4 -51 24 -51 29 0 38 13 30 40 -7 21 -30 26
-54 11z"/>
<path d="M2281 2581 c-9 -6 -11 -18 -7 -36 5 -20 12 -26 29 -23 17 2 22 10 22
33 0 31 -19 42 -44 26z"/>
<path d="M2866 2384 c-12 -12 -13 -20 -6 -35 12 -22 30 -25 48 -7 18 18 15 36
-7 48 -15 7 -23 6 -35 -6z"/>
<path d="M2972 2258 c-16 -16 -15 -33 3 -48 23 -19 59 15 44 41 -11 22 -30 24
-47 7z"/>
<path d="M3082 2138 c-17 -17 -15 -32 8 -53 26 -23 43 -9 38 31 -3 31 -26 42
-46 22z"/>
<path d="M3825 3231 c-3 -5 -1 -12 5 -16 5 -3 10 -15 10 -25 0 -29 20 -35 42
-12 l20 20 -21 21 c-22 22 -46 27 -56 12z"/>
<path d="M3726 3122 c-15 -18 -15 -20 4 -37 20 -18 21 -18 43 4 22 22 22 22 3
37 -25 18 -29 18 -50 -4z"/>
<path d="M3951 3093 c-22 -18 -22 -19 -4 -35 13 -11 24 -13 41 -7 27 10 28 21
3 43 -17 15 -20 15 -40 -1z"/>
<path d="M3642 2975 c-11 -23 -9 -27 14 -37 21 -10 27 -9 35 3 11 18 12 49 0
49 -5 0 -16 2 -23 5 -9 4 -19 -4 -26 -20z"/>
<path d="M4013 2949 c-14 -14 -5 -46 14 -53 20 -8 43 11 43 34 0 26 -37 39
-57 19z"/>
<path d="M3584 2825 c-16 -42 35 -63 57 -24 9 17 8 23 -2 30 -22 14 -49 10
-55 -6z"/>
<path d="M4066 2792 c-9 -16 6 -52 23 -52 47 1 56 53 9 58 -14 2 -29 -1 -32
-6z"/>
<path d="M4131 2636 c-17 -20 -3 -46 24 -46 29 0 36 10 28 38 -6 25 -35 29
-52 8z"/>
<path d="M4812 2418 c-16 -16 -15 -33 2 -47 28 -23 68 17 45 45 -14 17 -31 18
-47 2z"/>
<path d="M3411 2362 c-16 -30 24 -63 48 -39 16 16 14 44 -5 51 -25 9 -33 7
-43 -12z"/>
<path d="M4253 2333 c-17 -6 -16 -38 0 -52 19 -15 50 9 45 35 -3 19 -23 27
-45 17z"/>
<path d="M4700 2285 c-10 -12 -10 -18 0 -30 17 -21 54 -15 58 9 7 32 -36 48
-58 21z"/>
<path d="M3336 2224 c-19 -19 -17 -33 7 -48 24 -15 56 17 41 41 -15 24 -29 26
-48 7z"/>
<path d="M4332 2187 c-16 -19 8 -50 34 -45 28 5 26 52 -2 56 -11 2 -26 -3 -32
-11z"/>
<path d="M4590 2161 c-7 -15 -6 -24 6 -36 19 -18 33 -16 48 7 7 12 6 21 -3 32
-18 22 -38 20 -51 -3z"/>
<path d="M3237 2103 c-4 -3 -7 -17 -7 -30 0 -19 5 -23 29 -23 37 0 47 25 18
45 -24 17 -31 18 -40 8z"/>
<path d="M4444 2095 c-7 -17 12 -45 31 -45 19 0 36 25 29 44 -8 20 -53 21 -60
1z"/>
</g>
</svg>
