<?xml version="1.0" standalone="no"?>
<!DOCTYPE svg PUBLIC "-//W3C//DTD SVG 20010904//EN"
 "http://www.w3.org/TR/2001/REC-SVG-20010904/DTD/svg10.dtd">
<svg version="1.0" xmlns="http://www.w3.org/2000/svg"
 width="964.000000pt" height="964.000000pt" viewBox="0 0 964.000000 964.000000"
 preserveAspectRatio="xMidYMid meet">

<g transform="translate(0.000000,964.000000) scale(0.100000,-0.100000)"
fill="#000000" stroke="none">
<path d="M3527 8092 c-9 -9 -33 -55 -55 -102 -22 -47 -58 -123 -80 -170 -21
-47 -55 -119 -74 -160 -21 -44 -42 -114 -53 -170 -9 -52 -34 -185 -56 -295
-21 -110 -56 -297 -79 -415 -22 -118 -49 -260 -60 -315 -10 -55 -26 -147 -35
-205 -8 -58 -20 -130 -25 -160 -25 -150 -42 -249 -65 -392 -14 -87 -36 -227
-50 -310 -13 -84 -36 -225 -50 -313 -14 -88 -30 -178 -35 -200 -5 -22 -16 -80
-25 -130 -9 -49 -20 -108 -25 -130 -5 -22 -23 -114 -40 -205 -17 -91 -42 -219
-55 -285 -13 -66 -31 -160 -40 -210 -15 -77 -96 -376 -139 -508 -8 -23 -22
-69 -31 -102 -75 -257 -65 -233 -188 -449 -107 -187 -98 -177 -245 -286 -68
-51 -133 -80 -178 -80 -21 0 -52 -8 -69 -18 -27 -15 -73 -17 -477 -20 l-448
-3 0 -59 0 -60 3970 0 3970 0 0 59 0 60 -367 3 c-277 2 -374 6 -391 16 -12 7
-52 15 -90 18 -37 3 -85 14 -107 24 -22 11 -57 22 -77 25 -21 3 -38 10 -38 15
0 4 -13 11 -29 15 -16 3 -37 15 -47 26 -9 10 -22 19 -28 19 -7 0 -19 8 -28 18
-9 9 -33 28 -53 42 -57 39 -89 75 -191 218 -83 115 -120 182 -189 337 -103
233 -138 319 -169 420 -20 66 -43 138 -51 160 -7 22 -30 94 -50 160 -20 66
-45 145 -55 175 -17 52 -54 189 -120 445 -16 61 -47 182 -70 270 -40 155 -83
322 -224 870 -60 234 -111 394 -261 825 -51 145 -50 144 -193 298 -76 82 -101
102 -123 102 -22 0 -49 -23 -141 -120 -62 -67 -118 -131 -124 -143 -7 -12 -53
-139 -103 -282 -51 -143 -99 -278 -107 -299 -14 -36 -103 -344 -140 -486 -8
-30 -22 -80 -30 -110 -21 -70 -39 -134 -52 -185 -13 -47 -97 -319 -154 -495
-22 -69 -47 -147 -55 -175 -38 -119 -51 -146 -123 -250 -42 -60 -82 -120 -89
-132 -21 -41 -35 -32 -168 114 -41 45 -47 59 -78 178 -49 188 -138 523 -160
605 -22 79 -31 122 -55 255 -5 28 -16 88 -25 135 -9 47 -20 108 -25 135 -5 28
-20 111 -34 185 -13 74 -45 248 -71 385 -47 257 -52 283 -136 690 -50 241 -79
379 -119 575 -19 94 -32 126 -127 310 -58 113 -115 217 -125 233 -22 31 -48
35 -71 9z m51 -214 c6 -7 45 -79 87 -161 81 -155 78 -146 140 -452 13 -66 56
-275 95 -465 39 -190 77 -383 86 -430 8 -47 21 -119 29 -160 8 -41 36 -185 60
-320 64 -345 73 -391 96 -520 21 -118 34 -172 147 -600 11 -41 38 -145 61
-230 46 -177 55 -199 108 -256 21 -22 71 -78 112 -122 80 -89 103 -98 138 -59
11 12 68 92 125 178 98 146 108 165 147 290 24 74 58 179 76 234 34 102 77
238 113 355 11 36 34 117 51 180 17 63 35 129 41 145 11 36 51 182 79 285 31
118 80 282 96 320 8 19 37 100 65 180 87 244 113 314 124 331 17 26 133 149
161 171 31 24 35 22 134 -86 74 -80 89 -107 130 -226 13 -36 57 -162 98 -280
41 -118 90 -276 109 -350 35 -132 64 -247 165 -640 28 -107 59 -229 70 -270
11 -41 40 -151 64 -245 82 -319 116 -450 125 -480 30 -102 93 -304 100 -325 5
-14 27 -86 50 -160 83 -268 88 -281 235 -605 17 -38 37 -86 45 -105 18 -46 43
-86 126 -200 38 -52 78 -108 89 -124 31 -45 93 -104 135 -131 44 -28 110 -91
110 -105 0 -12 -5496 -14 -5504 -2 -6 10 39 58 87 92 19 14 43 39 53 55 112
188 222 391 236 435 10 30 25 78 33 105 17 51 71 237 85 290 4 17 17 59 28 95
54 169 75 250 112 440 22 113 44 228 50 255 6 28 20 100 31 160 12 61 27 144
35 185 8 41 19 98 23 125 5 28 18 95 29 150 11 55 28 145 36 200 9 55 20 125
26 155 5 30 17 100 25 155 8 55 19 125 25 155 5 30 17 100 25 155 8 55 19 125
25 155 5 30 17 100 25 155 9 55 20 125 25 155 5 30 16 98 25 150 8 52 20 118
25 145 6 28 28 147 51 265 59 317 69 366 89 470 10 52 26 136 35 185 34 192
45 223 174 486 43 87 48 92 69 67z"/>
</g>
</svg>
