<?xml version="1.0" standalone="no"?>
<!DOCTYPE svg PUBLIC "-//W3C//DTD SVG 20010904//EN"
 "http://www.w3.org/TR/2001/REC-SVG-20010904/DTD/svg10.dtd">
<svg version="1.0" xmlns="http://www.w3.org/2000/svg"
 width="378.000000pt" height="379.000000pt" viewBox="0 0 378.000000 379.000000"
 preserveAspectRatio="xMidYMid meet">

<g transform="translate(0.000000,379.000000) scale(0.100000,-0.100000)"
fill="#ffffff" stroke="none">
<path d="M514 3775 c-259 -57 -459 -265 -504 -525 -8 -46 -10 -453 -8 -1395 3
-1264 4 -1333 22 -1385 76 -226 230 -378 451 -447 57 -17 125 -18 1415 -18
1290 0 1358 1 1415 18 223 69 383 229 452 452 17 57 18 125 18 1420 0 1295 -1
1363 -18 1420 -69 221 -221 375 -447 451 -52 18 -120 19 -1395 21 -1087 1
-1352 -1 -1401 -12z m2758 -54 c117 -30 193 -73 279 -160 87 -86 130 -162 160
-279 18 -72 19 -123 19 -1387 0 -1264 -1 -1315 -19 -1387 -30 -117 -73 -193
-160 -279 -86 -87 -162 -130 -279 -160 -72 -18 -123 -19 -1382 -19 -1259 0
-1310 1 -1382 19 -117 30 -193 73 -279 160 -87 86 -130 162 -160 279 -18 72
-19 123 -19 1387 0 1264 1 1315 19 1387 30 117 73 193 160 279 85 85 161 129
275 159 68 18 135 19 1382 19 1264 1 1314 0 1386 -18z"/>
<path d="M1355 2878 c-2 -7 -24 -87 -49 -178 -37 -139 -52 -223 -91 -525 -25
-198 -50 -363 -54 -368 -4 -4 -86 -6 -182 -5 l-174 3 -32 49 c-37 57 -43 61
-101 70 -37 6 -56 1 -135 -35 -115 -52 -166 -66 -278 -75 -74 -5 -89 -9 -89
-23 0 -16 23 -17 298 -13 l298 5 15 -24 c9 -13 57 -151 108 -307 56 -172 98
-285 107 -289 16 -6 45 11 89 53 29 28 32 37 74 297 l45 267 167 0 167 0 6
-27 c3 -16 24 -147 46 -292 l40 -264 49 -91 c27 -50 55 -91 62 -91 32 0 104
163 204 460 l100 300 230 3 230 2 23 -59 c13 -33 46 -90 75 -127 l51 -66 54 5
c53 6 56 7 178 128 l125 121 294 -4 c278 -3 295 -2 295 14 0 10 -7 18 -17 18
-33 1 -198 19 -322 35 -135 18 -194 12 -257 -26 -28 -17 -53 -19 -240 -19
-115 0 -214 4 -221 8 -6 4 -40 79 -75 168 -46 116 -76 175 -108 216 -25 31
-50 59 -56 61 -6 3 -34 -8 -62 -25 -46 -26 -57 -40 -99 -121 -27 -50 -66 -139
-89 -197 l-41 -105 -210 -3 c-161 -2 -213 1 -220 10 -6 7 -29 173 -52 368 -42
350 -51 397 -122 643 -13 44 -25 67 -35 67 -8 0 -17 -6 -19 -12z m55 -203 c24
-84 43 -198 79 -485 26 -206 46 -378 44 -382 -6 -12 -311 -10 -318 1 -10 17
85 711 110 806 13 50 29 110 35 134 6 23 13 41 15 39 2 -2 18 -53 35 -113z
m923 -514 c32 -41 157 -324 157 -353 0 -11 -417 -10 -424 1 -7 11 58 175 111
277 28 55 53 88 75 102 18 12 35 22 38 22 3 0 23 -22 43 -49z m-1641 -281 c14
0 58 -56 58 -74 0 -3 -63 -6 -140 -6 -77 0 -140 3 -140 8 0 13 164 82 185 77
11 -3 28 -5 37 -5z m2527 -76 c2 -2 -21 -4 -53 -4 -37 0 -55 4 -51 10 6 10 92
4 104 -6z m-2059 -35 c0 -5 -18 -121 -41 -257 -39 -240 -41 -248 -71 -276 -24
-22 -33 -25 -38 -15 -5 8 -36 100 -70 204 -34 105 -74 227 -89 273 l-28 82
169 0 c111 0 168 -4 168 -11z m836 -4 c-3 -8 -44 -135 -92 -282 -47 -148 -102
-299 -122 -337 -40 -77 -40 -77 -89 18 -20 39 -33 103 -64 305 -22 141 -42
268 -45 284 l-6 27 212 0 c184 0 211 -2 206 -15z m876 -62 c-101 -112 -116
-124 -159 -130 -37 -5 -41 -3 -80 48 -34 44 -83 136 -83 155 0 2 88 4 196 4
l196 0 -70 -77z"/>
</g>
</svg>
