<?xml version="1.0" standalone="no"?>
<!DOCTYPE svg PUBLIC "-//W3C//DTD SVG 20010904//EN"
 "http://www.w3.org/TR/2001/REC-SVG-20010904/DTD/svg10.dtd">
<svg version="1.0" xmlns="http://www.w3.org/2000/svg"
 width="964.000000pt" height="964.000000pt" viewBox="0 0 964.000000 964.000000"
 preserveAspectRatio="xMidYMid meet">

<g transform="translate(0.000000,964.000000) scale(0.100000,-0.100000)"
fill="#000000" stroke="none">
<path d="M3932 8293 c-22 -19 -36 -83 -222 -1073 -20 -107 -42 -297 -70 -615
-22 -253 -47 -527 -55 -610 -8 -82 -22 -229 -30 -325 -58 -661 -93 -1012 -104
-1023 -9 -9 -118 -13 -414 -15 -221 -2 -417 0 -435 3 -30 6 -37 14 -68 83 -20
42 -39 86 -44 97 -55 133 -74 164 -109 179 -31 13 -102 32 -201 52 -25 5 -68
-19 -379 -212 -57 -35 -107 -64 -112 -64 -5 0 -17 -4 -27 -10 -120 -69 -435
-109 -854 -110 l-188 0 0 -67 0 -66 312 7 c172 3 351 11 398 16 103 11 1140
13 1157 2 15 -9 67 -122 82 -177 6 -22 29 -123 51 -225 22 -102 45 -203 50
-225 5 -22 28 -125 51 -230 51 -236 288 -1194 300 -1217 6 -11 21 -18 38 -18
25 0 47 19 136 118 59 64 113 128 119 142 7 14 18 66 25 115 15 118 48 389 66
545 8 69 19 161 25 205 13 106 56 468 75 625 9 69 20 165 26 214 6 50 15 100
20 113 l9 23 394 0 c303 0 396 -3 404 -12 5 -7 20 -101 32 -208 12 -107 23
-211 26 -230 2 -19 13 -118 24 -220 11 -102 47 -435 80 -740 l61 -555 95 -250
c53 -137 102 -263 109 -280 7 -16 17 -42 23 -57 6 -14 21 -29 33 -33 32 -11
59 24 93 121 29 78 50 134 141 373 26 68 56 158 65 200 23 100 134 576 166
716 15 61 60 247 101 415 40 168 90 370 109 450 55 229 65 264 80 288 l15 22
542 -2 542 -3 18 -37 c10 -20 29 -76 43 -125 14 -48 36 -125 49 -171 16 -56
52 -134 108 -235 46 -84 97 -174 112 -202 44 -80 42 -78 116 -72 84 7 189 34
212 55 25 22 257 350 353 497 92 143 99 152 186 233 l67 62 536 0 535 0 0 63
0 64 -39 11 c-21 7 -54 12 -72 12 -19 0 -65 7 -104 16 -74 16 -144 30 -314 63
-58 11 -146 23 -196 27 -93 7 -156 -6 -262 -52 -17 -8 -37 -14 -45 -14 -7 0
-38 -22 -68 -50 -40 -37 -64 -51 -94 -55 -78 -11 -1034 -1 -1046 11 -10 10
-64 179 -110 344 -6 19 -32 112 -59 205 -26 94 -70 247 -96 340 -51 179 -66
214 -150 360 -28 50 -64 113 -79 140 -44 79 -75 115 -99 115 -24 0 -227 -155
-251 -192 -14 -21 -80 -194 -191 -503 -26 -71 -89 -280 -141 -464 -51 -183
-98 -339 -104 -345 -17 -17 -997 -20 -1030 -3 -29 15 -31 26 -54 292 -9 99
-20 227 -26 285 -5 58 -17 184 -25 280 -9 96 -20 225 -26 285 -5 61 -16 184
-24 275 -8 91 -21 237 -30 325 -8 88 -26 293 -41 455 -20 232 -35 342 -69 515
-198 994 -196 987 -253 938z m119 -767 c85 -418 81 -387 154 -1211 19 -220 42
-467 50 -550 8 -82 33 -365 57 -629 41 -471 42 -479 23 -493 -16 -11 -82 -13
-382 -11 -319 3 -364 5 -379 19 -17 18 -18 -5 16 349 11 115 43 460 66 720 8
91 19 212 24 270 6 58 15 159 21 225 5 66 16 190 25 275 8 85 19 207 24 270
18 207 31 324 40 365 5 22 16 81 25 130 9 50 20 110 25 135 5 25 30 153 56
285 25 132 48 244 51 248 14 24 32 -42 104 -397z m2243 -1702 c67 -117 99
-184 116 -245 13 -46 30 -106 37 -134 8 -27 18 -63 23 -80 4 -16 29 -102 54
-190 25 -88 53 -185 62 -215 9 -30 19 -66 24 -80 4 -14 15 -52 25 -85 9 -33
21 -70 26 -83 16 -39 11 -62 -17 -72 -15 -6 -217 -10 -503 -10 -380 0 -481 3
-495 13 -17 13 -18 17 -3 78 43 177 157 571 192 664 18 50 52 142 75 205 24
63 53 143 66 177 13 34 24 64 24 68 0 28 154 157 183 153 12 -2 50 -58 111
-164z m-4032 -929 c40 -9 80 -23 90 -33 23 -24 91 -189 85 -205 -8 -21 -65
-27 -277 -27 -252 0 -390 9 -390 25 0 18 373 254 402 255 9 0 50 -7 90 -15z
m6088 -234 c23 -7 21 -8 -15 -14 -86 -15 -160 -6 -138 17 8 8 121 6 153 -3z
m-4912 -128 c6 -12 -1 -102 -19 -248 -15 -126 -39 -324 -53 -440 -14 -115 -39
-325 -56 -465 -17 -140 -40 -329 -50 -419 -11 -93 -26 -173 -34 -185 -7 -12
-40 -49 -71 -84 -50 -54 -60 -61 -72 -49 -11 11 -167 606 -202 772 -5 22 -17
74 -26 115 -24 106 -30 131 -58 260 -14 63 -33 149 -42 190 -21 91 -26 117
-54 245 -35 159 -51 222 -67 261 -28 67 -47 64 395 64 371 0 401 -1 409 -17z
m2040 -8 c1 -11 -44 -212 -102 -445 -57 -234 -113 -465 -125 -515 -12 -49 -34
-146 -51 -215 -16 -69 -41 -177 -55 -240 -15 -63 -37 -162 -51 -220 -14 -58
-32 -136 -41 -175 -14 -61 -79 -249 -118 -340 -7 -16 -25 -63 -40 -102 -14
-40 -30 -75 -35 -78 -13 -8 -25 14 -80 155 -29 74 -59 149 -65 165 -31 73 -44
127 -54 225 -10 92 -85 781 -168 1530 -15 135 -24 253 -20 263 6 16 38 17 504
15 491 -3 498 -3 501 -23z m2272 11 c0 -15 -140 -239 -152 -244 -5 -2 -8 -8
-8 -13 0 -21 -281 -403 -307 -416 -15 -9 -60 -18 -99 -20 l-71 -5 -25 43 c-14
24 -38 67 -53 94 -15 28 -49 88 -75 135 -35 62 -61 130 -95 247 -26 89 -45
169 -42 178 6 13 61 15 467 15 392 0 460 -2 460 -14z"/>
</g>
</svg>
