<?xml version="1.0" standalone="no"?>
<!DOCTYPE svg PUBLIC "-//W3C//DTD SVG 20010904//EN"
 "http://www.w3.org/TR/2001/REC-SVG-20010904/DTD/svg10.dtd">
<svg version="1.0" xmlns="http://www.w3.org/2000/svg"
 width="964.000000pt" height="965.000000pt" viewBox="0 0 964.000000 965.000000"
 preserveAspectRatio="xMidYMid meet">

<g transform="translate(0.000000,965.000000) scale(0.100000,-0.100000)"
fill="#000000" stroke="none">
<path d="M3812 7882 c-12 -12 -27 -65 -46 -168 -16 -82 -57 -297 -91 -479 -72
-378 -80 -432 -95 -610 -16 -204 -30 -362 -40 -465 -6 -52 -15 -149 -20 -215
-40 -461 -90 -1037 -95 -1075 -2 -25 -7 -76 -10 -115 -4 -38 -11 -75 -17 -82
-20 -25 -88 -8 -88 22 0 16 -31 28 -53 19 -9 -3 -23 -17 -32 -30 -21 -32 -94
-34 -132 -4 -14 11 -33 20 -43 20 -10 0 -29 -9 -43 -20 -30 -24 -104 -27 -133
-5 -25 19 -78 19 -94 0 -8 -10 -30 -15 -62 -15 -69 0 -91 27 -157 188 -29 72
-60 137 -69 145 -17 13 -36 20 -154 52 -70 19 -59 23 -267 -113 -159 -104
-262 -162 -290 -162 -10 0 -21 -3 -25 -7 -33 -34 -282 -63 -548 -65 l-208 -2
0 -56 0 -56 778 4 c738 3 779 2 794 -15 26 -29 54 -110 77 -223 12 -58 35
-168 52 -245 47 -222 66 -311 94 -445 15 -69 40 -181 56 -250 17 -69 36 -152
44 -185 8 -33 25 -107 39 -165 13 -58 36 -157 51 -220 15 -63 33 -125 41 -138
27 -42 38 -34 183 127 l78 87 11 89 c16 121 84 702 122 1040 5 44 14 116 19
160 5 44 17 143 26 220 9 77 21 145 27 152 8 10 87 13 349 13 l339 0 5 -22 c5
-27 39 -291 60 -483 3 -22 7 -60 10 -85 3 -25 23 -202 45 -395 84 -731 74
-682 147 -760 173 -185 170 -184 197 -143 8 13 20 46 26 73 14 62 50 216 95
400 71 295 87 365 120 520 19 88 48 225 65 305 17 80 35 165 40 190 38 189 63
288 87 337 l28 58 120 2 c281 4 975 2 989 -3 8 -3 20 -19 26 -35 7 -16 16 -32
21 -34 9 -6 59 15 59 25 0 3 6 14 13 24 12 17 73 18 1190 16 l1177 -1 0 54 0
54 -55 7 c-30 3 -92 3 -138 0 -71 -6 -89 -4 -115 12 -30 17 -33 17 -67 1 -54
-26 -116 -22 -149 8 -15 14 -37 25 -50 25 -15 0 -27 -9 -34 -25 -10 -21 -18
-25 -56 -25 -64 0 -76 7 -76 45 0 35 -13 45 -56 45 -18 0 -24 -5 -24 -23 0
-12 -7 -33 -16 -46 -15 -21 -23 -23 -75 -19 -32 2 -61 6 -63 9 -2 2 0 25 6 51
13 56 0 81 -41 76 -25 -3 -26 -6 -26 -65 0 -68 -4 -73 -75 -73 -69 0 -75 6
-76 65 0 30 -3 57 -7 61 -4 4 -21 3 -39 -3 -32 -9 -33 -10 -30 -61 2 -48 1
-52 -23 -58 -13 -3 -44 -3 -67 0 -24 4 -54 6 -68 6 -154 -8 -859 -8 -975 0
-254 17 -316 28 -402 66 -17 8 -36 14 -42 14 -15 0 -119 57 -158 86 -17 13
-33 24 -36 24 -2 0 -62 38 -133 86 -89 58 -135 83 -149 80 -11 -3 -48 -12 -82
-20 -124 -28 -128 -33 -195 -196 -32 -79 -66 -152 -75 -162 -16 -18 -40 -19
-384 -18 -267 1 -371 5 -378 13 -9 12 -17 80 -51 462 -10 121 -28 324 -40 450
-11 127 -31 358 -45 515 -13 157 -29 339 -35 405 -24 270 -34 342 -82 600 -28
149 -54 288 -58 310 -37 216 -85 444 -96 463 -17 27 -28 28 -52 4z m33 -332
c3 -5 24 -105 45 -222 22 -117 46 -244 54 -283 37 -181 48 -263 76 -585 16
-190 39 -448 50 -575 11 -126 25 -279 30 -340 5 -60 21 -236 35 -390 30 -338
30 -344 8 -352 -25 -9 -33 -23 -33 -60 0 -22 7 -37 22 -47 12 -9 18 -19 14
-23 -10 -10 -327 -17 -384 -8 -41 6 -43 8 -28 24 28 31 18 111 -14 111 -42 0
-60 -55 -36 -112 6 -13 1 -18 -26 -23 -61 -11 -101 -3 -115 25 -35 74 -43 100
-38 141 3 24 9 100 15 169 6 69 15 170 20 225 5 55 14 154 20 220 6 66 15 167
20 225 6 58 17 184 25 280 30 359 56 648 65 750 11 112 14 133 59 365 16 83
43 228 61 323 31 160 40 187 55 162z m-1482 -2622 c26 -5 59 -20 72 -31 22
-20 95 -184 95 -213 0 -26 -80 -34 -100 -9 -7 8 -27 15 -45 15 -18 0 -38 -7
-45 -15 -8 -10 -30 -15 -65 -15 -35 0 -57 5 -65 15 -7 8 -27 15 -45 15 -18 0
-38 -7 -45 -15 -20 -24 -102 -19 -144 8 -19 12 -35 25 -36 29 -1 21 339 241
360 233 8 -4 37 -11 63 -17z m2985 -31 c18 -37 61 -47 80 -19 8 12 19 22 25
22 8 0 315 -192 347 -217 19 -15 -52 -23 -217 -23 -177 0 -196 2 -233 21 l-41
22 -29 -22 c-32 -23 -123 -30 -135 -11 -9 14 71 214 93 233 17 15 54 26 82 23
8 -1 21 -14 28 -29z m-1963 -313 c10 -11 14 -26 11 -43 -3 -14 -19 -145 -36
-291 -16 -146 -34 -301 -40 -345 -5 -44 -14 -123 -20 -175 -9 -83 -23 -201
-35 -295 -2 -16 -13 -113 -25 -215 -11 -102 -23 -199 -26 -216 -5 -34 -106
-154 -130 -154 -8 0 -14 2 -14 5 0 3 -8 38 -19 78 -10 39 -24 99 -31 132 -7
33 -16 71 -21 85 -4 14 -22 86 -38 160 -17 74 -37 160 -44 190 -8 30 -20 82
-27 115 -6 33 -18 87 -25 120 -8 33 -28 128 -45 210 -17 83 -34 168 -39 190
-5 22 -14 64 -20 93 -6 28 -16 76 -22 105 -6 28 -20 86 -31 127 -11 41 -20 86
-21 100 l-2 25 335 5 c184 3 338 6 342 8 4 1 14 -5 23 -14z m1605 -14 c0 -11
-6 -37 -14 -57 -8 -21 -17 -51 -20 -68 -3 -16 -13 -61 -21 -100 -9 -38 -24
-113 -35 -165 -10 -52 -28 -135 -40 -184 -11 -48 -36 -163 -54 -255 -19 -91
-60 -274 -91 -406 -32 -132 -70 -293 -86 -359 -15 -65 -32 -123 -37 -128 -6
-6 -33 17 -70 57 -44 48 -62 76 -66 103 -5 32 -61 501 -137 1157 -10 94 -24
206 -29 250 -14 112 -13 155 4 155 7 0 19 -7 26 -15 17 -21 27 -19 52 10 l22
25 298 0 c290 0 298 -1 298 -20z"/>
<path d="M3897 4823 c-4 -3 -7 -23 -7 -44 0 -28 5 -41 20 -49 45 -24 81 20 60
74 -7 20 -17 26 -38 26 -16 0 -32 -3 -35 -7z"/>
<path d="M4471 4434 c-27 -34 -26 -47 2 -80 l23 -27 27 33 c27 32 27 32 10 63
-24 41 -37 43 -62 11z"/>
<path d="M4606 4208 c-21 -30 -20 -38 9 -73 l25 -30 25 28 c18 21 24 35 19 50
-15 51 -52 63 -78 25z"/>
<path d="M4757 3990 c-23 -28 -22 -40 11 -80 33 -39 48 -34 57 19 12 70 -29
106 -68 61z"/>
<path d="M5764 5937 c-3 -8 0 -26 6 -42 6 -15 8 -30 6 -33 -9 -8 14 -42 28
-42 19 0 46 33 46 57 0 47 -71 97 -86 60z"/>
<path d="M5626 5748 c-22 -31 -20 -51 7 -76 30 -28 32 -28 57 8 18 25 19 33 9
52 -23 44 -50 49 -73 16z"/>
<path d="M5932 5704 c-24 -17 -30 -62 -10 -82 18 -18 53 -14 73 8 16 18 16 20
-5 55 -25 40 -27 41 -58 19z"/>
<path d="M5510 5484 c-10 -30 -9 -38 6 -55 13 -15 64 -28 64 -16 0 1 4 17 9
35 8 27 7 36 -10 53 -30 30 -56 24 -69 -17z"/>
<path d="M6016 5435 c-15 -11 -17 -21 -12 -50 8 -41 27 -52 62 -37 16 8 24 20
24 37 0 58 -34 80 -74 50z"/>
<path d="M5440 5231 c-15 -30 -12 -66 8 -84 32 -29 54 -17 67 34 5 20 1 32
-16 48 -28 26 -45 27 -59 2z"/>
<path d="M6108 5173 c-22 -6 -31 -35 -23 -72 8 -37 31 -46 62 -25 21 13 24 21
19 46 -6 31 -23 59 -35 57 -3 -1 -14 -3 -23 -6z"/>
<path d="M6178 4889 c-33 -19 -16 -99 21 -99 32 0 50 31 42 70 -7 38 -31 49
-63 29z"/>
<path d="M7080 4490 c-24 -33 -21 -57 11 -86 21 -19 21 -18 45 9 30 35 30 58
1 85 -30 28 -31 28 -57 -8z"/>
<path d="M5212 4417 c-7 -7 -13 -28 -14 -47 -3 -28 2 -36 25 -49 26 -15 29
-15 43 3 21 30 18 72 -8 90 -27 19 -33 20 -46 3z"/>
<path d="M6320 4330 c-8 -15 -8 -30 0 -55 14 -41 37 -45 67 -12 20 20 20 25 8
55 -17 38 -57 45 -75 12z"/>
<path d="M6940 4263 c-8 -15 -15 -31 -17 -34 -5 -11 38 -59 52 -59 8 0 22 14
31 31 15 30 15 33 -4 58 -26 36 -46 37 -62 4z"/>
<path d="M5099 4144 l-22 -36 20 -26 c11 -15 26 -28 34 -30 14 -2 49 45 49 65
0 12 -43 63 -52 63 -4 0 -16 -16 -29 -36z"/>
<path d="M6447 4092 c-21 -23 -21 -46 -1 -77 19 -30 35 -31 57 -7 22 24 21 65
-1 85 -24 22 -35 21 -55 -1z"/>
<path d="M6797 4052 c-23 -25 -21 -65 3 -87 24 -21 41 -16 60 20 12 23 12 30
-1 53 -18 33 -40 38 -62 14z"/>
<path d="M4972 3938 c-18 -18 -15 -95 4 -102 25 -9 33 -7 54 14 26 26 25 32
-6 69 -29 34 -35 36 -52 19z"/>
<path d="M6594 3937 c-10 -27 1 -80 19 -91 30 -19 52 4 52 55 0 42 -1 44 -33
47 -21 2 -34 -2 -38 -11z"/>
</g>
</svg>
