<?xml version="1.0" standalone="no"?>
<!DOCTYPE svg PUBLIC "-//W3C//DTD SVG 20010904//EN"
 "http://www.w3.org/TR/2001/REC-SVG-20010904/DTD/svg10.dtd">
<svg version="1.0" xmlns="http://www.w3.org/2000/svg"
 width="379.000000pt" height="379.000000pt" viewBox="0 0 379.000000 379.000000"
 preserveAspectRatio="xMidYMid meet">

<g transform="translate(0.000000,379.000000) scale(0.100000,-0.100000)"
fill="#000000" stroke="none">
<path d="M510 3774 c-180 -38 -357 -177 -439 -344 -74 -152 -71 -72 -71 -1535
0 -1463 -3 -1383 71 -1535 83 -169 260 -307 444 -345 105 -22 2655 -22 2760 0
240 50 450 260 500 500 22 105 22 2655 0 2760 -50 240 -260 450 -500 500 -102
21 -2666 21 -2765 -1z m2774 -54 c113 -29 190 -73 276 -160 87 -86 131 -163
160 -276 19 -75 20 -115 20 -1389 0 -1274 -1 -1314 -20 -1389 -29 -113 -73
-190 -160 -276 -86 -87 -163 -131 -276 -160 -75 -19 -115 -20 -1389 -20 -1274
0 -1314 1 -1389 20 -113 29 -190 73 -276 160 -87 86 -131 163 -160 276 -19 75
-20 115 -20 1389 0 1274 1 1314 20 1389 29 113 73 190 160 276 85 86 163 131
272 160 70 18 126 19 1389 19 1279 1 1318 0 1393 -19z"/>
<path d="M1455 2948 c-2 -7 -25 -93 -50 -190 -40 -156 -51 -223 -90 -559 -25
-210 -45 -388 -45 -396 0 -15 -36 -18 -45 -3 -3 6 -15 10 -26 10 -10 0 -19 -4
-19 -10 0 -5 -13 -10 -30 -10 -16 0 -30 5 -30 10 0 6 -9 10 -20 10 -11 0 -20
-4 -20 -10 0 -13 -46 -13 -71 1 -15 7 -24 7 -34 -1 -8 -6 -26 -10 -42 -8 -27
3 -45 23 -85 96 -14 26 -23 31 -73 37 -54 7 -62 5 -164 -43 -128 -61 -177 -72
-326 -72 -114 0 -115 0 -115 -23 l0 -24 350 3 350 3 11 -22 c7 -12 38 -112 69
-222 87 -301 134 -440 151 -442 7 -1 36 17 63 40 l48 43 44 290 c24 159 46
295 49 302 6 16 335 18 335 1 0 -5 20 -142 45 -302 37 -237 49 -295 64 -307
88 -72 92 -74 105 -59 15 15 80 223 150 475 24 89 50 171 57 182 13 20 22 21
275 21 222 1 263 -1 274 -14 15 -18 39 -20 45 -2 4 9 107 11 480 9 l475 -2 0
23 c0 20 -4 23 -35 19 -21 -3 -35 0 -35 7 0 14 -37 15 -45 1 -11 -18 -54 -11
-65 10 -6 11 -17 20 -24 20 -8 0 -16 -9 -19 -20 -5 -18 -13 -20 -99 -19 -51 0
-87 3 -80 6 20 8 15 45 -5 41 -12 -3 -17 -12 -16 -26 l3 -23 -318 5 c-174 2
-344 10 -377 16 -33 6 -108 34 -167 62 -105 50 -109 51 -164 42 -57 -9 -57 -9
-92 -72 l-34 -63 -180 1 c-127 1 -180 5 -183 13 -2 7 -23 176 -45 377 -35 314
-47 391 -87 555 -25 105 -50 198 -55 208 -10 20 -27 22 -33 5z m59 -255 c27
-112 44 -227 71 -468 20 -176 38 -335 42 -352 4 -26 2 -33 -11 -33 -21 0 -20
-26 2 -39 12 -7 -26 -10 -133 -11 -149 0 -150 0 -161 24 -17 38 64 709 105
876 35 138 38 150 45 150 2 0 20 -66 40 -147z m-726 -809 c19 -5 62 -67 62
-89 0 -11 -49 -4 -53 8 -3 10 -9 10 -26 0 -26 -16 -56 -16 -83 -2 -14 8 -23 8
-31 0 -13 -13 -52 -13 -82 -2 -17 7 -7 15 60 49 79 41 109 47 153 36z m1407
-11 c10 -14 16 -15 28 -5 12 10 31 4 108 -33 l93 -45 -108 0 c-59 0 -117 5
-128 11 -14 8 -23 8 -31 0 -11 -11 -67 -16 -67 -6 0 19 43 84 57 88 31 8 36 7
48 -10z m-1648 -79 c-3 -3 -12 -4 -19 -1 -8 3 -5 6 6 6 11 1 17 -2 13 -5z
m713 -36 c0 -7 -18 -137 -41 -288 -38 -252 -44 -277 -67 -303 -14 -15 -30 -26
-35 -24 -11 3 -64 170 -136 422 -27 94 -52 177 -56 186 -5 15 12 16 164 18
133 1 171 -1 171 -11z m757 0 c-2 -7 -23 -80 -46 -163 -58 -210 -134 -455
-140 -455 -3 0 -19 10 -35 23 -28 23 -30 29 -72 303 -24 153 -44 283 -44 287
0 5 9 6 19 2 11 -3 22 -1 26 5 10 16 299 14 292 -2z"/>
<path d="M1500 1829 c0 -25 33 -22 38 4 2 12 -3 17 -17 17 -15 0 -21 -6 -21
-21z"/>
<path d="M1392 1823 c5 -26 38 -29 38 -4 0 15 -6 21 -21 21 -14 0 -19 -5 -17
-17z"/>
<path d="M1771 1711 c-12 -8 -13 -12 -1 -26 12 -14 15 -14 28 -1 8 8 11 19 8
25 -9 13 -16 14 -35 2z"/>
<path d="M1835 1630 c-4 -6 -1 -17 5 -26 15 -18 42 0 33 22 -6 16 -29 19 -38
4z"/>
<path d="M1905 1550 c-7 -12 12 -40 26 -40 5 0 9 11 9 25 0 25 -23 35 -35 15z"/>
<path d="M2387 2253 c-3 -5 -1 -19 5 -32 8 -23 10 -23 25 -8 13 13 14 19 3 31
-14 17 -26 20 -33 9z"/>
<path d="M2322 2187 c-10 -11 -9 -17 3 -27 24 -20 45 4 24 26 -14 13 -17 13
-27 1z"/>
<path d="M2461 2167 c-15 -19 11 -42 34 -30 14 8 14 11 -3 26 -16 15 -21 15
-31 4z"/>
<path d="M2267 2086 c-6 -15 19 -30 34 -20 5 3 9 12 9 20 0 18 -36 18 -43 0z"/>
<path d="M2503 2064 c-8 -20 8 -36 26 -25 15 10 8 41 -9 41 -6 0 -13 -7 -17
-16z"/>
<path d="M2233 1994 c-7 -19 11 -39 26 -30 16 10 13 33 -4 40 -9 3 -18 -1 -22
-10z"/>
<path d="M2543 1964 c-8 -20 8 -36 26 -25 15 10 8 41 -9 41 -6 0 -13 -7 -17
-16z"/>
<path d="M2575 1870 c-9 -15 4 -30 27 -30 14 0 18 5 14 16 -3 9 -6 18 -6 20 0
8 -29 4 -35 -6z"/>
<path d="M3290 1830 c0 -24 25 -27 34 -4 9 23 8 24 -14 24 -13 0 -20 -7 -20
-20z"/>
<path d="M3010 1725 c-10 -12 -9 -16 5 -21 19 -8 40 9 31 25 -10 15 -21 14
-36 -4z"/>
<path d="M2116 1695 c-3 -8 3 -19 13 -25 15 -7 20 -6 25 6 3 9 4 20 0 25 -8
14 -31 11 -38 -6z"/>
<path d="M2650 1659 c0 -25 33 -22 38 4 2 12 -3 17 -17 17 -15 0 -21 -6 -21
-21z"/>
<path d="M2943 1644 c-7 -18 17 -38 31 -24 11 11 1 40 -14 40 -6 0 -13 -7 -17
-16z"/>
<path d="M2071 1606 c-8 -10 -7 -17 5 -27 13 -11 17 -10 25 2 12 20 11 26 -5
32 -8 3 -19 0 -25 -7z"/>
<path d="M2711 1586 c-8 -10 -8 -16 2 -24 17 -15 39 0 31 21 -8 21 -18 22 -33
3z"/>
<path d="M2875 1570 c-4 -6 -1 -18 6 -26 11 -14 13 -14 21 0 15 26 -12 51 -27
26z"/>
<path d="M2006 1524 c-7 -19 1 -34 19 -34 21 0 28 19 15 35 -16 19 -26 19 -34
-1z"/>
<path d="M2780 1520 c0 -13 7 -20 20 -20 13 0 20 7 20 20 0 13 -7 20 -20 20
-13 0 -20 -7 -20 -20z"/>
</g>
</svg>
