<?xml version="1.0" standalone="no"?>
<!DOCTYPE svg PUBLIC "-//W3C//DTD SVG 20010904//EN"
 "http://www.w3.org/TR/2001/REC-SVG-20010904/DTD/svg10.dtd">
<svg version="1.0" xmlns="http://www.w3.org/2000/svg"
 width="605.000000pt" height="604.000000pt" viewBox="0 0 605.000000 604.000000"
 preserveAspectRatio="xMidYMid meet">

<g transform="translate(0.000000,604.000000) scale(0.100000,-0.100000)"
fill="#ffffff" stroke="none">
<path d="M303 6025 c-152 -41 -261 -157 -293 -310 -7 -34 -9 -912 -8 -2725 l3
-2675 23 -57 c42 -104 126 -188 230 -230 l57 -23 2710 0 2710 0 57 23 c104 42
188 126 230 230 l23 57 0 2705 0 2705 -23 57 c-42 104 -126 188 -230 230 l-57
23 -2690 2 c-2295 1 -2698 0 -2742 -12z m5479 -108 c65 -32 121 -89 152 -156
l21 -46 0 -2695 0 -2695 -21 -46 c-31 -67 -87 -124 -152 -156 l-57 -28 -2700
0 -2700 0 -46 21 c-67 31 -124 87 -156 152 l-28 57 -3 2675 c-2 2936 -7 2729
57 2817 39 54 91 93 154 115 50 17 180 17 2737 15 l2685 -2 57 -28z"/>
<path d="M680 5051 l0 -271 35 0 34 0 3 108 3 107 115 5 c91 4 122 9 149 25
94 56 95 215 1 270 -30 17 -56 20 -187 23 l-153 4 0 -271z m308 185 c46 -41
39 -126 -11 -157 -26 -15 -51 -19 -129 -19 l-98 0 0 93 c0 52 3 97 8 101 4 4
53 6 108 4 82 -2 106 -7 122 -22z"/>
<path d="M4470 5280 c0 -38 2 -40 30 -40 28 0 30 2 30 40 0 38 -2 40 -30 40
-28 0 -30 -2 -30 -40z"/>
<path d="M1259 5149 l-29 -31 0 26 c0 22 -4 26 -30 26 l-30 0 0 -195 0 -195
34 0 34 0 4 144 c3 126 5 147 23 166 15 16 29 21 59 18 33 -2 41 1 50 21 8 19
7 26 -9 37 -32 24 -74 17 -106 -17z"/>
<path d="M1500 5158 c-77 -39 -113 -139 -90 -243 22 -99 97 -153 201 -143 56
6 93 28 127 79 l23 34 -31 9 c-28 8 -34 6 -60 -26 -65 -79 -175 -45 -196 60
l-6 32 146 0 146 0 0 38 c0 45 -29 109 -61 139 -53 48 -129 56 -199 21z m148
-54 c13 -8 27 -26 32 -40 20 -53 18 -54 -94 -54 -58 0 -107 4 -110 8 -11 17
30 78 64 95 37 19 69 16 108 -9z"/>
<path d="M1970 5173 c-8 -3 -27 -15 -42 -25 -28 -19 -28 -19 -28 1 0 17 -6 21
-30 21 l-30 0 0 -270 0 -270 35 0 35 0 0 90 0 89 35 -21 c71 -41 170 -4 211
79 29 59 26 175 -5 230 -36 63 -121 98 -181 76z m86 -62 c41 -25 57 -75 52
-157 -3 -56 -8 -69 -36 -96 -83 -84 -183 0 -169 140 6 60 29 99 68 119 33 17
49 16 85 -6z"/>
<path d="M2349 5151 l-29 -29 0 24 c0 20 -5 24 -30 24 l-30 0 0 -195 0 -195
29 0 29 0 4 135 c3 117 6 138 25 162 17 23 28 28 61 27 37 -1 42 3 51 28 9 26
8 30 -15 38 -42 16 -64 12 -95 -19z"/>
<path d="M2580 5157 c-63 -33 -90 -88 -90 -182 0 -94 27 -149 90 -182 55 -29
113 -29 170 0 57 28 87 73 95 142 14 109 -17 183 -95 223 -57 28 -115 28 -170
-1z m125 -41 c49 -21 75 -68 75 -136 0 -72 -24 -120 -73 -144 -55 -27 -103 -8
-134 54 -42 82 -17 196 49 225 41 18 42 18 83 1z"/>
<path d="M3000 5158 c-66 -34 -90 -82 -90 -183 0 -101 24 -149 90 -182 87 -44
183 -18 222 61 12 25 20 48 17 50 -2 2 -16 7 -31 11 -23 6 -28 3 -33 -18 -19
-73 -116 -96 -166 -39 -31 35 -45 98 -34 161 18 106 135 145 183 61 18 -31 22
-32 60 -22 22 7 22 7 5 41 -40 77 -138 103 -223 59z"/>
<path d="M3396 5170 c-67 -20 -115 -100 -116 -190 0 -81 15 -123 59 -163 82
-74 230 -56 276 33 19 37 18 38 -21 46 -26 5 -32 2 -42 -21 -15 -32 -70 -57
-111 -49 -38 8 -76 49 -89 97 l-10 37 144 0 144 0 0 48 c-1 120 -113 198 -234
162z m136 -79 c14 -14 28 -37 30 -51 l3 -25 -107 -3 c-121 -3 -127 1 -88 65
34 57 112 64 162 14z"/>
<path d="M3780 5169 c-63 -26 -92 -85 -70 -140 14 -33 48 -54 124 -75 111 -32
125 -44 104 -89 -13 -29 -65 -47 -109 -38 -31 6 -69 45 -69 70 0 11 -8 13 -32
8 -18 -4 -34 -9 -36 -10 -9 -8 29 -74 52 -92 60 -48 180 -41 233 12 28 28 33
40 33 78 0 62 -27 86 -136 118 -103 30 -126 52 -96 89 36 45 152 24 152 -28 0
-11 8 -13 32 -8 17 3 33 8 36 10 8 8 -29 66 -53 82 -30 19 -131 28 -165 13z"/>
<path d="M4153 5169 c-43 -13 -73 -53 -73 -99 0 -60 28 -86 128 -116 99 -30
112 -38 112 -69 0 -76 -148 -82 -179 -6 -14 33 -15 34 -48 25 -28 -8 -29 -27
-3 -69 56 -91 240 -83 285 12 19 40 14 86 -12 115 -9 10 -61 32 -114 49 -68
21 -100 36 -104 48 -22 72 126 94 158 24 9 -20 16 -23 36 -18 35 9 36 10 21
46 -24 56 -120 83 -207 58z"/>
<path d="M4754 5166 c-18 -8 -35 -19 -38 -25 -11 -18 -26 -13 -26 9 0 15 -7
20 -25 20 l-25 0 0 -195 0 -195 29 0 30 0 3 146 c3 146 3 146 31 170 30 26 83
32 117 14 29 -15 40 -73 40 -207 l0 -123 30 0 30 0 0 150 c0 105 -4 161 -14
184 -24 57 -112 82 -182 52z"/>
<path d="M5125 5167 c-64 -30 -95 -94 -95 -194 0 -112 54 -182 147 -190 40 -4
55 0 86 21 l37 25 0 -44 c0 -83 -76 -134 -154 -101 -19 8 -37 23 -40 34 -6 17
-32 31 -58 32 -12 0 -10 -36 4 -64 15 -34 83 -66 139 -66 60 0 128 35 153 80
18 31 21 57 24 252 l4 218 -31 0 c-25 0 -31 -4 -31 -21 0 -20 0 -20 -31 2 -38
27 -113 35 -154 16z m110 -51 c83 -35 98 -203 22 -260 -34 -25 -91 -25 -119 1
-79 70 -55 243 37 266 11 2 21 5 23 6 1 0 18 -5 37 -13z"/>
<path d="M4470 4975 l0 -195 30 0 30 0 0 195 0 195 -30 0 -30 0 0 -195z"/>
<path d="M2123 3918 c-11 -13 -47 -59 -81 -103 -61 -80 -62 -83 -136 -325 -41
-135 -107 -371 -146 -525 -107 -418 -207 -736 -283 -896 -35 -74 -66 -140 -68
-146 -2 -6 -35 -46 -74 -89 -134 -149 -232 -173 -717 -174 l-288 0 0 -25 0
-25 2690 0 2690 0 0 25 0 25 -297 1 c-392 0 -577 20 -691 74 -29 14 -55 25
-58 25 -3 0 -40 28 -81 63 -142 119 -280 351 -443 747 -39 96 -106 258 -147
360 -42 102 -79 190 -83 195 -4 6 -29 51 -55 100 -27 50 -56 103 -66 119 -21
34 -155 126 -185 126 -12 0 -54 -22 -95 -49 -73 -49 -75 -51 -156 -198 -45
-81 -111 -215 -147 -298 -36 -82 -97 -213 -136 -290 -59 -117 -80 -149 -128
-192 -31 -29 -63 -52 -70 -53 -7 0 -36 17 -65 39 -50 37 -54 44 -119 197 -39
96 -97 264 -143 419 -42 143 -108 359 -148 480 -70 216 -73 221 -135 300 -63
80 -98 115 -111 115 -4 0 -17 -10 -28 -22z m91 -133 c54 -64 57 -70 135 -313
44 -136 111 -353 149 -482 39 -133 100 -306 138 -399 l69 -165 75 -53 c41 -29
85 -53 98 -53 14 0 49 24 92 63 63 57 76 76 153 227 47 91 113 228 146 305 34
77 97 202 139 279 69 126 81 141 129 172 30 19 60 34 69 34 9 0 40 -17 69 -37
48 -33 63 -54 124 -165 39 -70 99 -198 135 -285 189 -466 230 -562 301 -703
139 -278 274 -441 423 -511 34 -17 62 -34 62 -39 0 -6 -640 -10 -1751 -10
-1172 0 -1748 3 -1744 10 3 6 21 17 38 26 18 8 65 50 105 92 65 68 83 96 149
232 80 166 87 185 138 354 18 61 45 149 60 196 14 47 58 208 96 359 60 232
144 529 206 726 19 58 118 205 138 205 2 0 29 -29 59 -65z"/>
</g>
</svg>
