<?xml version="1.0" standalone="no"?>
<!DOCTYPE svg PUBLIC "-//W3C//DTD SVG 20010904//EN"
 "http://www.w3.org/TR/2001/REC-SVG-20010904/DTD/svg10.dtd">
<svg version="1.0" xmlns="http://www.w3.org/2000/svg"
 width="159.000000pt" height="158.000000pt" viewBox="0 0 159.000000 158.000000"
 preserveAspectRatio="xMidYMid meet">

<g transform="translate(0.000000,158.000000) scale(0.100000,-0.100000)"
fill="#000000" stroke="none">
<path d="M187 1566 c-86 -31 -155 -104 -177 -188 -7 -24 -10 -244 -8 -610 3
-569 3 -573 25 -614 28 -53 74 -99 127 -127 41 -22 41 -22 641 -22 600 0 600
0 641 22 53 28 99 74 127 127 22 41 22 41 22 636 0 595 0 595 -22 636 -28 53
-74 99 -127 127 -41 22 -44 22 -626 24 -474 2 -592 0 -623 -11z m1216 -22 c28
-10 65 -34 91 -60 77 -77 76 -64 76 -694 0 -630 1 -617 -76 -694 -77 -78 -63
-76 -699 -76 -636 0 -622 -2 -699 76 -77 77 -76 64 -76 694 0 630 -1 617 76
694 76 76 58 74 695 75 494 1 571 -1 612 -15z"/>
</g>
</svg>
