<?xml version="1.0" standalone="no"?>
<!DOCTYPE svg PUBLIC "-//W3C//DTD SVG 20010904//EN"
 "http://www.w3.org/TR/2001/REC-SVG-20010904/DTD/svg10.dtd">
<svg version="1.0" xmlns="http://www.w3.org/2000/svg"
 width="379.000000pt" height="379.000000pt" viewBox="0 0 379.000000 379.000000"
 preserveAspectRatio="xMidYMid meet">

<g transform="translate(0.000000,379.000000) scale(0.100000,-0.100000)"
fill="#000000" stroke="none">
<path d="M510 3774 c-180 -38 -357 -177 -439 -344 -74 -152 -71 -72 -71 -1535
0 -1463 -3 -1383 71 -1535 83 -169 260 -307 444 -345 105 -22 2655 -22 2760 0
240 50 450 260 500 500 22 105 22 2655 0 2760 -50 240 -260 450 -500 500 -102
21 -2666 21 -2765 -1z m2774 -54 c113 -29 190 -73 276 -160 87 -86 131 -163
160 -276 19 -75 20 -115 20 -1389 0 -1274 -1 -1314 -20 -1389 -29 -113 -73
-190 -160 -276 -86 -87 -163 -131 -276 -160 -75 -19 -115 -20 -1389 -20 -1274
0 -1314 1 -1389 20 -113 29 -190 73 -276 160 -87 86 -131 163 -160 276 -19 75
-20 115 -20 1389 0 1274 1 1314 20 1389 29 113 73 190 160 276 85 86 163 131
272 160 70 18 126 19 1389 19 1279 1 1318 0 1393 -19z"/>
<path d="M1290 2639 c-23 -30 -48 -63 -55 -74 -18 -28 -106 -320 -156 -515
-128 -504 -221 -710 -350 -776 -62 -31 -175 -44 -386 -44 -147 0 -173 -2 -173
-15 0 -13 198 -15 1720 -15 1441 0 1720 2 1720 14 0 10 -49 14 -247 19 -309 7
-379 23 -481 107 -100 82 -176 220 -329 595 -114 280 -169 380 -233 423 -28
17 -53 32 -58 32 -4 0 -30 -15 -58 -34 -41 -28 -61 -52 -101 -123 -27 -48 -60
-113 -72 -143 -56 -134 -155 -317 -193 -357 l-41 -42 -37 25 c-32 21 -44 42
-84 137 -25 62 -66 182 -91 267 -25 85 -68 223 -96 305 -45 138 -54 155 -103
209 l-53 60 -43 -55z m162 -231 c26 -79 68 -213 93 -298 25 -85 69 -209 96
-275 47 -111 54 -123 98 -152 26 -18 53 -33 59 -33 7 0 32 18 57 41 49 45 112
156 193 339 74 168 129 263 168 288 42 27 46 27 89 0 48 -32 115 -159 218
-413 47 -115 107 -255 134 -310 80 -168 180 -291 271 -336 23 -11 42 -23 42
-25 0 -2 -503 -4 -1117 -4 -816 1 -1113 4 -1098 12 11 6 44 34 74 62 94 89
178 303 291 741 77 299 139 485 178 539 l36 49 36 -41 c27 -32 46 -75 82 -184z"/>
</g>
</svg>
